<?xml version="1.0" standalone="no"?>
<!DOCTYPE svg PUBLIC "-//W3C//DTD SVG 1.1//EN" "http://www.w3.org/Graphics/SVG/1.1/DTD/svg11.dtd" >
<svg xmlns="http://www.w3.org/2000/svg">
<metadata>
<json>
<![CDATA[
{
	"fontFamily": "P-icon",
	"description": "Programmeria Icons\nFont generated by IcoMoon.",
	"copyright": "Programmeria",
	"majorVersion": 1,
	"minorVersion": 1,
	"designer": "Programmeria",
	"version": "Version 1.1",
	"fontId": "P-icon",
	"psName": "P-icon",
	"subFamily": "Regular",
	"fullName": "P-icon"
}
]]>
</json>
</metadata>
<defs>
<font id="P-icon" horiz-adv-x="1024">
<font-face units-per-em="1024" ascent="896" descent="-128" />
<missing-glyph horiz-adv-x="1024" />
<glyph unicode="&#x20;" horiz-adv-x="0" d="" />
<glyph unicode="&#xe900;" glyph-name="q-github" data-tags="q-github" horiz-adv-x="992" d="M331.8 101.2c0-4-4.6-7.2-10.4-7.2-6.6-0.6-11.2 2.6-11.2 7.2 0 4 4.6 7.2 10.4 7.2 6 0.6 11.2-2.6 11.2-7.2zM269.6 110.2c-1.4-4 2.6-8.6 8.6-9.8 5.2-2 11.2 0 12.4 4s-2.6 8.6-8.6 10.4c-5.2 1.4-11-0.6-12.4-4.6zM358 113.6c-5.8-1.4-9.8-5.2-9.2-9.8 0.6-4 5.8-6.6 11.8-5.2 5.8 1.4 9.8 5.2 9.2 9.2-0.6 3.8-6 6.4-11.8 5.8zM489.6 880c-277.4 0-489.6-210.6-489.6-488 0-221.8 139.6-411.6 339-478.4 25.6-4.6 34.6 11.2 34.6 24.2 0 12.4-0.6 80.8-0.6 122.8 0 0-140-30-169.4 59.6 0 0-22.8 58.2-55.6 73.2 0 0-45.8 31.4 3.2 30.8 0 0 49.8-4 77.2-51.6 43.8-77.2 117.2-55 145.8-41.8 4.6 32 17.6 54.2 32 67.4-111.8 12.4-224.6 28.6-224.6 221 0 55 15.2 82.6 47.2 117.8-5.2 13-22.2 66.6 5.2 135.8 41.8 13 138-54 138-54 40 11.2 83 17 125.6 17s85.6-5.8 125.6-17c0 0 96.2 67.2 138 54 27.4-69.4 10.4-122.8 5.2-135.8 32-35.4 51.6-63 51.6-117.8 0-193-117.8-208.4-229.6-221 18.4-15.8 34-45.8 34-92.8 0-67.4-0.6-150.8-0.6-167.2 0-13 9.2-28.8 34.6-24.2 200 66.4 335.6 256.2 335.6 478 0 277.4-225 488-502.4 488zM194.4 190.2c-2.6-2-2-6.6 1.4-10.4 3.2-3.2 7.8-4.6 10.4-2 2.6 2 2 6.6-1.4 10.4-3.2 3.2-7.8 4.6-10.4 2zM172.8 206.4c-1.4-2.6 0.6-5.8 4.6-7.8 3.2-2 7.2-1.4 8.6 1.4 1.4 2.6-0.6 5.8-4.6 7.8-4 1.2-7.2 0.6-8.6-1.4zM237.6 135.2c-3.2-2.6-2-8.6 2.6-12.4 4.6-4.6 10.4-5.2 13-2 2.6 2.6 1.4 8.6-2.6 12.4-4.4 4.6-10.4 5.2-13 2zM214.8 164.6c-3.2-2-3.2-7.2 0-11.8s8.6-6.6 11.2-4.6c3.2 2.6 3.2 7.8 0 12.4-2.8 4.6-8 6.6-11.2 4z" />
<glyph unicode="&#xe92e;" glyph-name="q-php" data-tags="q-php" horiz-adv-x="1280" d="M640 687c342.8 0 606.4-144.4 606.4-303s-263.8-303-606.4-303c-342.8 0-606.4 144.4-606.4 303s263.8 303 606.4 303zM640 720.6c-353.4 0-640-150.6-640-336.6s286.6-336.6 640-336.6 640 150.6 640 336.6-286.6 336.6-640 336.6zM436.4 411c-15.8-81-71.6-72.6-140.2-72.6l27.4 141.2c76 0 127.6 8.2 112.8-68.6zM194.8 195.4h73.4l17.4 89.6c82.2 0 133.2-6 180.4 38.2 52.2 48 65.8 133.4 28.6 176.2-19.4 22.4-50.6 33.4-93 33.4h-141.4l-65.4-337.4zM566.2 622.6h73l-17.4-89.6c63 0 121.4 4.6 149.6-21.4 29.6-27.2 15.4-62-16.6-226.2h-74c30.8 158.8 36.6 172 25.4 184-10.8 11.6-35.4 9.2-94.8 9.2l-37.6-193.2h-73l65.4 337.2zM1010 411c-16-82.2-73.4-72.6-140.2-72.6l27.4 141.2c76.4 0 127.6 8.2 112.8-68.6zM768.4 195.4h73.6l17.4 89.6c86.4 0 134.2-5 180.4 38.2 52.2 48 65.8 133.4 28.6 176.2-19.4 22.4-50.6 33.4-93 33.4h-141.4l-65.6-337.4z" />
<glyph unicode="&#xe92f;" glyph-name="q-js" data-tags="q-js" horiz-adv-x="896" d="M0 832v-896h896v896h-896zM487.6 133.2c0-87.2-51.2-127-125.8-127-67.4 0-106.4 34.8-126.4 77l68.6 41.4c13.2-23.4 25.2-43.2 54.2-43.2 27.6 0 45.2 10.8 45.2 53v286.2h84.2v-287.4zM686.8 6.2c-78.2 0-128.8 37.2-153.4 86l68.6 39.6c18-29.4 41.6-51.2 83-51.2 34.8 0 57.2 17.4 57.2 41.6 0 28.8-22.8 39-61.4 56l-21 9c-60.8 25.8-101 58.4-101 127 0 63.2 48.2 111.2 123.2 111.2 53.6 0 92-18.6 119.6-67.4l-65.6-42c-14.4 25.8-30 36-54.2 36-24.6 0-40.2-15.6-40.2-36 0-25.2 15.6-35.4 51.8-51.2l21-9c71.6-30.6 111.8-62 111.8-132.4 0-75.6-59.6-117.2-139.4-117.2z" />
<glyph unicode="&#xe930;" glyph-name="q-html" data-tags="q-html" horiz-adv-x="768" d="M0 832l69.8-791.6 313.2-104.4 315.2 104.4 69.8 791.6h-768zM616.4 576.2h-367.6l8.2-98.8h351.2l-27.2-296.8-195.8-54v-0.6h-2.2l-197.4 54.6-12 151.6h95.4l7-76.2 107-29 107.4 29 12 124.4h-333.8l-25.6 291.2h482.2l-8.8-95.4z" />
<glyph unicode="&#xe931;" glyph-name="q-book" data-tags="q-book" horiz-adv-x="896" d="M896 176v672c0 26.6-21.4 48-48 48h-656c-106 0-192-86-192-192v-640c0-106 86-192 192-192h656c26.6 0 48 21.4 48 48v32c0 15-7 28.6-17.8 37.4-8.4 30.8-8.4 118.6 0 149.4 10.8 8.6 17.8 22.2 17.8 37.2zM256 628c0 6.6 5.4 12 12 12h424c6.6 0 12-5.4 12-12v-40c0-6.6-5.4-12-12-12h-424c-6.6 0-12 5.4-12 12v40zM256 500c0 6.6 5.4 12 12 12h424c6.6 0 12-5.4 12-12v-40c0-6.6-5.4-12-12-12h-424c-6.6 0-12 5.4-12 12v40zM762.8 0h-570.8c-35.4 0-64 28.6-64 64 0 35.2 28.8 64 64 64h570.8c-3.8-34.2-3.8-93.8 0-128z" />
<glyph unicode="&#xe932;" glyph-name="q-windows-10" data-tags="q-windows-10" horiz-adv-x="896" d="M0 708.6l367.2 50.6v-354.8h-367.2v304.2zM0 59.4l367.2-50.6v350.4h-367.2v-299.8zM407.6 3.4l488.4-67.4v423.2h-488.4v-355.8zM407.6 764.6v-360.2h488.4v427.6l-488.4-67.4z" />
<glyph unicode="&#xe933;" glyph-name="q-apple" data-tags="q-apple" horiz-adv-x="768" d="M637.4 358.6c-0.4 73.4 32.8 128.8 100 169.6-37.6 53.8-94.4 83.4-169.4 89.2-71 5.6-148.6-41.4-177-41.4-30 0-98.8 39.4-152.8 39.4-111.6-1.8-230.2-89-230.2-266.4q0-78.6 28.8-162.4c25.6-73.4 118-253.4 214.4-250.4 50.4 1.2 86 35.8 151.6 35.8 63.6 0 96.6-35.8 152.8-35.8 97.2 1.4 180.8 165 205.2 238.6-130.4 61.4-123.4 180-123.4 183.8zM524.2 687c54.6 64.8 49.6 123.8 48 145-48.2-2.8-104-32.8-135.8-69.8-35-39.6-55.6-88.6-51.2-143.8 52.2-4 99.8 22.8 139 68.6z" />
<glyph unicode="&#xe934;" glyph-name="q-linux" data-tags="q-linux" horiz-adv-x="896" d="M441.6 649.4c2-1 3.6-3.4 6-3.4 2.2 0 5.6 0.8 5.8 3 0.4 2.8-3.8 4.6-6.4 5.8-3.4 1.4-7.8 2-11 0.2-0.8-0.4-1.6-1.4-1.2-2.2 0.6-2.6 4.6-2.2 6.8-3.4zM397.8 646c2.4 0 4 2.4 6 3.4 2.2 1.2 6.2 0.8 7 3.2 0.4 0.8-0.4 1.8-1.2 2.2-3.2 1.8-7.6 1.2-11-0.2-2.6-1.2-6.8-3-6.4-5.8 0.2-2 3.6-3 5.6-2.8zM840 88.4c-7.2 8-10.6 23.2-14.4 39.4-3.6 16.2-7.8 33.6-21 44.8-2.6 2.2-5.2 4.2-8 5.8-2.6 1.6-5.4 3-8.2 4 18.4 54.6 11.2 109-7.4 158.2-22.8 60.2-62.6 112.8-93 148.8-34.2 43-67.4 83.8-66.8 144 1 91.8 10.2 262.4-151.6 262.6-204.8 0.4-153.6-206.8-155.8-270.4-3.4-46.8-12.8-83.6-45-129.4-37.8-45-91-117.6-116.2-193.4-12-35.8-17.6-72.2-12.4-106.6-13-11.6-22.8-29.4-33.2-40.4-8.4-8.6-20.6-11.8-34-16.6s-28-12-37-29c-4.2-7.8-5.6-16.2-5.6-24.8 0-7.8 1.2-15.8 2.4-23.6 2.4-16.2 5-31.4 1.6-41.6-10.4-28.8-11.8-48.8-4.4-63.4 7.6-14.6 22.8-21 40.2-24.6 34.6-7.2 81.6-5.4 118.6-25 39.6-20.8 79.8-28.2 111.8-20.8 23.2 5.2 42.2 19.2 51.8 40.4 25 0.2 52.6 10.8 96.6 13.2 29.8 2.4 67.2-10.6 110.2-8.2 1.2-4.6 2.8-9.2 5-13.4v-0.2c16.6-33.4 47.6-48.6 80.6-46 33.2 2.6 68.2 22 96.6 55.8 27.2 32.8 72 46.4 101.8 64.4 14.8 9 26.8 20.2 27.8 36.6 0.8 16.4-8.8 34.6-31 59.4zM447.4 721.4c19.6 44.4 68.4 43.6 88 0.8 13-28.4 7.2-61.8-8.6-80.8-3.2 1.6-11.8 5.2-25.2 9.8 2.2 2.4 6.2 5.4 7.8 9.2 9.6 23.6-0.4 54-18.2 54.6-14.6 1-27.8-21.6-23.6-46-8.2 4-18.8 7-26 8.8-2 13.8-0.6 29.2 5.8 43.6zM366 744.4c20.2 0 41.6-28.4 38.2-67-7-2-14.2-5-20.4-9.2 2.4 17.8-6.6 40.2-19.2 39.2-16.8-1.4-19.6-42.4-3.6-56.2 2-1.6 3.8 0.4-11.8-11-31.2 29.2-21 104.2 16.8 104.2zM338.8 623c12.4 9.2 27.2 20 28.2 21 9.4 8.8 27 28.4 55.8 28.4 14.2 0 31.2-4.6 51.8-17.8 12.6-8.2 22.6-8.8 45.2-18.6 16.8-7 27.4-19.4 21-36.4-5.2-14.2-22-28.8-45.4-36.2-22.2-7.2-39.6-32-76.4-29.8-7.8 0.4-14 2-19.2 4.2-16 7-24.4 20.8-40 30-17.2 9.6-26.4 20.8-29.4 30.6-2.8 9.8 0 18 8.4 24.6zM345.4-45c-5.4-70.2-87.8-68.8-150.6-36-59.8 31.6-137.2 13-153 43.8-4.8 9.4-4.8 25.4 5.2 52.8v0.4c4.8 15.2 1.2 32-1.2 47.8-2.4 15.6-3.6 30 1.8 40 7 13.4 17 18.2 29.6 22.6 20.6 7.4 23.6 6.8 39.2 19.8 11 11.4 19 25.8 28.6 36 10.2 11 20 16.2 35.4 13.8 16.2-2.4 30.2-13.6 43.8-32l39.2-71.2c19-39.8 86.2-96.8 82-137.8zM342.6 6.8c-8.2 13.2-19.2 27.2-28.8 39.2 14.2 0 28.4 4.4 33.4 17.8 4.6 12.4 0 29.8-14.8 49.8-27 36.4-76.6 65-76.6 65-27 16.8-42.2 37.4-49.2 59.8s-6 46.6-0.6 70.4c10.4 45.8 37.2 90.4 54.4 118.4 4.6 3.4 1.6-6.4-17.4-41.6-17-32.2-48.8-106.6-5.2-164.8 1.2 41.4 11 83.6 27.6 123 24 54.8 74.6 149.8 78.6 225.4 2.2-1.6 9.2-6.4 12.4-8.2 9.2-5.4 16.2-13.4 25.2-20.6 24.8-20 57-18.4 84.8-2.4 12.4 7 22.4 15 31.8 18 19.8 6.2 35.6 17.2 44.6 30 15.4-60.8 51.4-148.6 74.4-191.4 12.2-22.8 36.6-71 47.2-129.2 6.6 0.2 14-0.8 21.8-2.8 27.6 71.4-23.4 148.4-46.6 169.8-9.4 9.2-9.8 13.2-5.2 13 25.2-22.4 58.4-67.4 70.4-118 5.6-23.2 6.6-47.4 0.8-71.4 32.8-13.6 71.8-35.8 61.4-69.6-4.4 0.2-6.4 0-8.4 0 6.4 20.2-7.8 35.2-45.6 52.2-39.2 17.2-72 17.2-76.6-25-24.2-8.4-36.6-29.4-42.8-54.6-5.6-22.4-7.2-49.4-8.8-79.8-1-15.4-7.2-36-13.6-58-64.2-45.8-153.4-65.8-228.6-14.4zM857.4 29.8c-1.8-33.6-82.4-39.8-126.4-93-26.4-31.4-58.8-48.8-87.2-51s-53 9.6-67.4 38.6c-9.4 22.2-4.8 46.2 2.2 72.6 7.4 28.4 18.4 57.6 19.8 81.2 1.6 30.4 3.4 57 8.4 77.4 5.2 20.6 13.2 34.4 27.4 42.2 0.6 0.4 1.4 0.6 2 1 1.6-26.4 14.6-53.2 37.6-59 25.2-6.6 61.4 15 76.8 32.6 18 0.6 31.4 1.8 45.2-10.2 19.8-17 14.2-60.6 34.2-83.2 21.2-23.2 28-39 27.4-49.2zM346.6 598.6c4-3.8 9.4-9 16-14.2 13.2-10.4 31.6-21.2 54.6-21.2 23.2 0 45 11.8 63.6 21.6 9.8 5.2 21.8 14 29.6 20.8s11.8 12.6 6.2 13.2-5.2-5.2-12-10.2c-8.8-6.4-19.4-14.8-27.8-19.6-14.8-8.4-39-20.4-59.8-20.4s-37.4 9.6-49.8 19.4c-6.2 5-11.4 10-15.4 13.8-3 2.8-3.8 9.2-8.6 9.8-2.8 0.2-3.6-7.4 3.4-13z" />
<glyph unicode="&#xe935;" glyph-name="q-ubuntu" data-tags="q-ubuntu" horiz-adv-x="992" d="M496 880c-274 0-496-222-496-496s222-496 496-496 496 222 496 496-222 496-496 496zM601.4 694c17.6 30.4 56.6 41 87 23.4 30.6-17.6 41-56.6 23.4-87.2-17.6-30.4-56.6-41-87-23.4-30.6 17.8-41 56.8-23.4 87.2zM174.8 320.2c-35.2 0-63.8 28.6-63.8 63.8s28.6 63.8 63.8 63.8c35.2 0 63.8-28.6 63.8-63.8s-28.6-63.8-63.8-63.8zM231 314c44.6 35.8 44.8 103.8 0 139.8 17.2 65.6 58.2 121.4 113 158.2l47.4-79.2c-103-72.6-103-225 0-297.6l-47.4-79.2c-54.8 36.6-95.6 92.6-113 158zM688.4 50.6c-30.6-17.6-69.4-7.2-87 23.4s-7.2 69.6 23.4 87.2c30.4 17.6 69.4 7.2 87-23.4s7.2-69.6-23.4-87.2zM689 189.6c-53.4 20.6-112.2-13.2-121-70-10.4-2.8-97.8-28.6-193.4 18.8l45 80.6c114-53 246.8 23.4 257.8 148.8l92.2-1.4c-4.6-69-34.6-131-80.6-176.8zM677.2 400.2c-10.8 124-142.6 202.4-257.8 148.8l-45 80.6c95.8 47.4 183 21.6 193.4 18.8 8.8-56.6 67.6-90.6 121-70 46.2-45.8 76-107.8 80.4-177l-92-1.2z" />
<glyph unicode="&#xe936;" glyph-name="q-suse" data-tags="q-suse" horiz-adv-x="1280" d="M942.16 690.68s-0.6-36.6-0.6-40.6c-18.2 6-148.8 48.2-271.4 52.6-103.8 3.6-245.6 8.6-446-114.6-38.8-24.8-147.8-92.2-199.2-219.4-10.96-26.68-25.2-86.68-10.96-142.8 7.212-27.191 18.545-51.001 33.466-72.094l-0.466 0.694c34.8-50 93.2-83.2 156.2-88.8 88.8-7.8 156.2 32 180 106.6 16.4 51.6 0 127.2-63 165.8-51.2 31.4-106.6 24.2-138.4 3.2-27.8-18.4-43.6-47-43.2-78.4 0.6-55.6 48.6-85.2 83-85.2 11.335 0.058 22.191 2.031 32.285 5.612l-0.685-0.212c13 3.6 26.6 13 26.6 29.8 0 24.2-23.2 29.6-33.6 27.8-5.8-1-9-4-23.6-4.8-4 0.4-24 6.2-24 28v0.12c0.4 24.6 26.4 36 51 33.8 64.6-5.6 95.4-81.4 57-131.4-36.6-47.4-153.2-46.4-199.4 40.8-52 98.4 25.4 222.4 174 196.8 66.4-11.4 167.2-71 204.8-208.6h91.8c-11.4 35.2-17.8 136.6 85.4 136.6 113.4 0 127.8-79.8 159.6-136.6h97.2c-25.6 36.6-43.4 77.4-37.8 111.6 11.2 67.6 79.4 36.8 164.8 34.8 133-0.8 204.2 54 206.2 56 7.4 6.2 13 31.6 14 35.4 2.6 10.2-6.4 4.8-6.4 4.8-17.4-10.4-61-30.4-101.8-31.2-50.6-1-152.4 50.8-163.2 56.4-0.6 0.8 0.2-2.4-22 51 176.8-116.6 236.6-81 290.4-43.4 1.6 1.2 8.6 5.8 7.2 11.4-27.6 96.2-44.8 125.4-69 139.2-74 43.2-250 69.4-258.4 70.6 0.2 0.2-1.8 0.6-1.8-1.4zM1062.96 545.080c1.349 40.407 34.429 72.651 75.041 72.651 0.97 0 1.936-0.018 2.898-0.055l-0.139 0.004c66.8-2.4 97.6-84.6 48.8-130.4-48.4-45.4-128.8-9.2-126.6 57.8zM1140.16 595.68c-0.509 0.018-1.106 0.028-1.706 0.028-29.017 0-52.54-23.523-52.54-52.54s23.523-52.54 52.54-52.54c28.353 0 51.461 22.459 52.503 50.557l0.003 0.095c0.025 0.609 0.040 1.324 0.040 2.043 0 28.387-22.581 51.5-50.761 52.355l-0.079 0.002zM1148.76 538.080c-30.8 0-30.8 31.2 0 31.2s30.8-31.28 0-31.28z" />
<glyph unicode="&#xe937;" glyph-name="q-redhat" data-tags="q-redhat" d="M683.040 324.88c67.3 0 164.68 13.88 164.68 94 0.44 13.48 1.72 3.64-41.76 192.48-9.24 38.3-17.36 55.68-84.62 89.3-52.18 26.68-165.84 70.74-199.46 70.74-31.32 0-40.4-40.34-77.74-40.34-36 0-62.62 30.12-96.24 30.12-32.28 0-53.32-22-69.56-67.24-55-155.1-52.56-148.54-52.24-156.54 0-49.6 195.28-212.22 456.94-212.22zM858 386.32c9.3-44 9.3-48.7 9.3-54.5 0-75.32-84.66-117.12-196-117.12-251.48-0.16-471.82 147.3-471.82 244.66 0 0.045 0 0.099 0 0.153 0 14.203 2.988 27.709 8.37 39.922l-0.249-0.635c-90.48-4.52-207.6-20.66-207.6-124.060 0-169.34 401.26-378 718.98-378 243.58 0 305.020 110.16 305.020 197.16 0 68.42-59.18 146.1-165.86 192.48z" />
<glyph unicode="&#xe938;" glyph-name="q-centos" data-tags="q-centos" horiz-adv-x="896" d="M579.2 701l63.2-63.4-152.6-153v216.4zM254.4 637.6l152.6-153v216.4h-89.4zM337.4 720.8h89.4v-255.8l21.6-21.6 21.6 21.6v255.8h89.4l-111 111.2zM389.8 384.6l-21.6 21.6h-257.2v89.6l-111-111.2 111-111.2v89.6h257.2l21.6 21.6zM548.4 426h215.8v89.6l-63.2 63.4zM895 384.6l-111 111.2v-89.6h-255.4l-21.6-21.6 21.6-21.6h255.4v-89.6l111 111.2zM130.8 543.6l65 63.4 180.6-181h30.6v30.6l-180.6 181 63.2 63.4h-158.8zM764.2 701h-157l63.2-63.4-180.6-181v-30.6h30.6l180.6 181 63.2-63.4zM407 68.2v216.2l-152.6-153 63.2-63.4h89.4zM130.8 426h217.6l-152.6 153-65-63.4zM764.2 225.6l-63.2-63.4-180.6 181h-30.6v-30.6l180.6-181-63.2-63.4h157zM764.2 343.2h-215.8l152.6-153 63.2 63.4zM642.4 131.6l-152.6 153v-216.2h89.4zM195.8 190.2l152.6 153h-217.6v-89.6zM559.4 48.4h-89.4v255.8l-21.6 21.6-21.6-21.6v-255.8h-89.4l111-111.2zM226.4 131.6l180.6 181v30.6h-30.6l-180.6-181-65 63.4v-157.4h158.8z" />
<glyph unicode="&#xe939;" glyph-name="q-fedora" data-tags="q-fedora" horiz-adv-x="896" d="M450 832c-247.4 0.6-448.4-199.4-449.2-446.8l-0.8-340.6c-0.001-0.178-0.002-0.389-0.002-0.6 0-59.205 47.995-107.2 107.2-107.2 0.001 0 0.001 0 0.002 0v0l340.4-0.8c247.4-0.6 448.6 199.4 449.2 446.8s-199.4 448.6-446.8 449.2zM789.6 517.6l-123.6 125.2c4.6 9.4 7.6 18.4 7.6 28.6v3.2l110.4-112.2c3.366-13.389 5.396-28.808 5.599-44.667l0.001-0.133zM662 707.4c55.25-24.329 97.37-69.906 116.557-126.107l0.443-1.493-108.6 109.2c-1.72 7.012-4.619 13.164-8.507 18.556l0.107-0.156zM236.2 401.6c-5.952-6.59-11.088-14.090-15.14-22.224l-0.26-0.576-17 17c9.398 2.753 20.429 4.807 31.774 5.758l0.626 0.042zM194 393.2l23.6-23.8-1.8-16c0.051-9.010 1.808-17.595 4.966-25.468l-0.166 0.468-54 54.4c7.716 3.876 16.812 7.42 26.263 10.122l1.137 0.278zM157.6 378.4l76.4-76.8c-10.601-1.982-20.052-5.242-28.806-9.679l0.606 0.279-70.6 71.8c6.412 4.77 13.73 9.534 21.337 13.846l1.063 0.554zM127.2 358.8l70.6-71c-7.878-5.201-14.748-10.799-21.009-17.009l0.009 0.009-69.8 69.2c6.048 6.957 12.666 13.131 19.873 18.564l0.327 0.236zM100.6 334.2l69.8-70c-5.795-6.64-10.916-14.123-15.102-22.17l-0.298-0.63-71.6 71.8c5.6 7.6 11.4 14.4 17.2 21zM78.6 305.6l72.8-73.2c-3.826-8.917-6.397-19.254-7.182-30.087l-0.018-0.313-79 79.6c4.442 9.372 8.906 17.237 13.863 24.747l-0.463-0.747zM61 273l82.6-83.6c0.706-19.22 5.578-37.147 13.733-53.119l-0.333 0.719-105.4 107c2.8 9.8 5.8 19.2 9.4 29zM45.2 187l123.8-124.4c-4.456-8.29-7.11-18.125-7.2-28.572v-2.228l-110.8 111.4c-3.59 13.115-5.7 28.189-5.8 43.741v0.059zM55.8 125.6l108.6-109.2c1.817-7.003 4.705-13.142 8.521-18.582l-0.121 0.182c-55.212 24.384-97.31 69.939-116.554 126.104l-0.446 1.496zM45.2 199.6c0.207 12.16 1.727 23.858 4.423 35.1l-0.223-1.1 144.4-145c-7.723-4.729-14.273-10.515-19.686-17.253l-0.114-0.147zM551.8 303.2l-85.2 0.2-0.2-112c-0.4-138.6-128.8-231.6-251.4-205.8-11.4 0-39.8 17.4-39.8 48.4 0.321 26.972 22.044 48.766 48.959 49.199l0.041 0.001c12.6 0 12.6-3.2 31.4-3.2 0.113 0 0.246-0.001 0.38-0.001 61.75 0 111.809 50.053 111.82 111.8v0.001l0.2 94c0 9-9 18-17.8 18l-67.2 0.2c-65.2 0.2-65 98.8 0.2 98.6l85.2-0.2 0.2 112c0.204 116.024 94.307 210.002 210.36 210.002 0.295 0 0.591-0.001 0.886-0.002h-0.046c0.237 0.001 0.518 0.002 0.798 0.002 14.049 0 27.706-1.678 40.782-4.843l-1.18 0.241c22.4-3.6 39.8-23.8 39.8-48 0-31-29.8-55.6-60.6-47.8-54.8 11.8-131.8-28.8-132-109.8l-0.2-94c0-0.036 0-0.078 0-0.12 0-9.847 7.96-17.835 17.796-17.88l67.204-0.2c65-0.4 64.8-99-0.4-98.8zM598.8 303.8c6.327 6.372 11.458 13.94 15.024 22.334l0.176 0.466 17-17c-9.175-2.548-20.123-4.593-31.34-5.729l-0.86-0.071zM640.8 312.2l-23.6 23.8 1.8 16.2c-0.051 9.010-1.808 17.595-4.966 25.468l0.166-0.468 54-54.4c-7.769-4.029-16.864-7.641-26.344-10.343l-1.056-0.257zM676.8 327l-76 76.8c9.8 2.2 19.2 4.8 27.4 9.4l72.4-71.8c-7.6-5-15.8-10-23.8-14.4zM707.8 346.6l-70.6 71c7.91 5.108 14.787 10.714 20.988 16.988l0.012 0.012 69.8-70c-6.244-6.205-12.829-12.093-19.713-17.622l-0.487-0.378zM734.2 371.2l-69.8 70c5.68 6.665 10.791 14.138 15.069 22.123l0.331 0.677 71.6-71.8c-5.78-7.823-11.418-14.666-17.384-21.204l0.184 0.204zM756.2 399.8l-72.8 73.2c3.826 8.917 6.397 19.254 7.182 30.087l0.018 0.313 79-79.6c-4.302-9.293-8.77-17.163-13.797-24.626l0.397 0.626zM783.2 461.6c-3.168-11.707-6.378-21.225-10.067-30.501l0.667 1.901-82.6 83c-0.581 19.3-5.773 37.265-14.503 52.995l0.303-0.595zM785.2 472.8l-143.8 144.2c7.934 4.766 14.538 10.924 19.665 18.198l0.135 0.202 128.6-129.4c-0.562-12.072-2.208-23.45-4.852-34.44l0.252 1.24z" />
<glyph unicode="&#xe93a;" glyph-name="q-android" data-tags="q-android" horiz-adv-x="1152" d="M841.1 292.14c-26.51 0-48 21.49-48 48s21.49 48 48 48c26.51 0 48-21.49 48-48v0c0-26.51-21.49-48-48-48v0zM310.9 292.14c-26.51 0-48 21.49-48 48s21.49 48 48 48c26.51 0 48-21.49 48-48v0c0-26.51-21.49-48-48-48v0zM858.3 581.1l95.88 166c2.125 3.128 3.392 6.988 3.392 11.144 0 11.046-8.954 20-20 20-7.82 0-14.592-4.488-17.88-11.029l-0.052-0.115-97.080-168.14c-72.475 33.327-157.248 52.76-246.56 52.76s-174.084-19.433-250.321-54.301l3.761 1.541-97.080 168.14c-3.341 6.656-10.112 11.144-17.932 11.144-11.046 0-20-8.954-20-20 0-4.156 1.268-8.016 3.437-11.214l-0.045 0.070 95.88-166c-164.64-89.54-277.22-256.2-293.7-453.1h1152c-16.48 196.9-129.080 363.56-293.7 453.1z" />
<glyph unicode="&#xe93b;" glyph-name="q-chrome" data-tags="q-chrome" horiz-adv-x="992" d="M263 461l-152.8 234.8c95.2 118.4 238 183.6 384 184.2 84.6 0.6 171-21 249.6-66.4 86.8-50.4 152.8-122.8 194.8-206l-410.6 21.6c-116.2 6.8-226.8-58.6-265-168.2zM328.8 384c0-92.4 74.8-167.2 167.2-167.2s167.2 74.8 167.2 167.2-74.8 167.2-167.2 167.2-167.2-74.6-167.2-167.2zM958.6 562.4l-279.4-14.4c75.8-88.6 77-216.4 13.2-314.4l-224.2-344.8c93-5 188.8 15.4 275.6 65.8 214.8 124 301.8 384 214.8 607.8zM267.4 288.8l-186.6 367c-51-78-80.8-171.6-80.8-271.8 0-248 181.6-453.4 419-489.8l127.4 249.6c-115.2-21.6-226.4 41.6-279 145z" />
<glyph unicode="&#xe93c;" glyph-name="q-firefox" data-tags="q-firefox" d="M261.26 649.020c0.32-0.020 0.16-0.020 0 0zM964.1 558.32c-21.22 51-64.16 106-97.88 123.46 27.44-53.78 43.34-107.76 49.4-148 0 0 0-0.28 0.1-0.82-55.16 137.5-148.7 192.94-225.1 313.66-3.86 6.1-7.72 12.22-11.48 18.66-2 3.3-3.72 6.68-5.38 10.1-2.915 5.509-5.407 11.911-7.143 18.617l-0.137 0.623c0.001 0.021 0.002 0.045 0.002 0.070 0 0.64-0.477 1.169-1.096 1.249l-0.006 0.001c-0.138 0.038-0.296 0.060-0.46 0.060s-0.322-0.022-0.473-0.063l0.013 0.003-0.24-0.14-0.36-0.2 0.2 0.28c-108.46-63.54-153.44-174.76-165-245.56-35.487-2.072-68.431-10.948-98.213-25.337l1.553 0.677c-4.148-2.092-6.944-6.318-6.944-11.197 0-1.544 0.28-3.023 0.792-4.389l-0.028 0.086c1.712-4.842 6.251-8.249 11.585-8.249 1.431 0 2.804 0.245 4.081 0.695l-0.086-0.026 1.040 0.42c24.586 11.897 53.233 19.777 83.459 21.956l0.761 0.044 2.84 0.2c4 0.24 8 0.4 12 0.44 0.592 0.005 1.291 0.008 1.992 0.008 24.266 0 47.708-3.525 69.843-10.090l-1.735 0.442c1.34-0.4 2.64-0.84 4-1.26 3.78-1.14 7.52-2.4 11.24-3.74 2.72-1 5.42-2 8.1-3.16 2.18-0.88 4.36-1.76 6.5-2.7q5.040-2.26 10-4.7c1.5-0.74 3-1.48 4.5-2.26q4.8-2.52 9.48-5.26 3.020-1.74 6-3.6c35.456-22.178 64.237-51.899 84.679-87.066l0.641-1.194c-26 18.3-72.7 36.38-117.64 28.56 175.48-87.72 128.36-389.8-114.78-378.4-23.022 0.967-44.709 5.373-64.99 12.718l1.51-0.478c-4.84 1.82-9.6 3.78-14.32 5.86-2.76 1.26-5.52 2.54-8.24 4-59.68 30.68-108.88 88.84-115.020 159.5 0 0 22.5 83.9 161.24 83.9 15 0 57.86 41.84 58.66 54-0.18 4-85.080 37.74-118.18 70.36-17.7 17.42-26.1 25.82-33.54 32.12-3.732 3.189-7.847 6.325-12.131 9.228l-0.489 0.312c-5.529 18.621-8.711 40.016-8.711 62.153 0 20.298 2.675 39.972 7.691 58.687l-0.361-1.581c-50.12-22.82-89.1-58.9-117.42-90.74h-0.24c-19.34 24.5-18 105.3-16.86 122.16-0.24 1.060-14.44-7.36-16.3-8.62-17.71-12.737-33.288-26.153-47.617-40.796l-0.063-0.064c-16.24-16.48-31.196-34.33-44.643-53.325l-0.897-1.335c-29.993-42.030-52.669-91.545-64.926-145.033l-0.534-2.767c-0.12-0.54-4.66-20.42-8-44.96q-0.84-5.74-1.56-11.48c-1.14-7.38-2-15.42-2.88-28 0-0.48 0-0.96-0.1-1.44-0.36-5.42-0.68-10.82-0.98-16.24 0-0.82 0-1.64 0-2.48 0-269.4 218.42-487.78 487.84-487.78 241.28 0 441.64 175.16 480.86 405.24 0.82 6.24 1.48 12.52 2.22 18.82 9.7 83.66-1.080 171.58-31.64 245.1z" />
<glyph unicode="&#xe93d;" glyph-name="q-opera" data-tags="q-opera" horiz-adv-x="992" d="M627.8 830.6c-340.4 0-505.2-447.6-295-710.2 73-90.8 177.2-151.2 295-151.2 72.6 0 140.6 22.2 198.8 60.8-87.6-78.4-203.8-126-330.6-126-7.8 0-16 0-23.8 0.6-263 12.2-472.2 229.2-472.2 495.4 0 274 222 496 496 496h1.6c126.2-0.6 241.4-48.2 328.8-126.2-58 38.8-126.2 60.8-198.6 60.8zM831.4 35.2c-81.8-49.4-181.4-47.2-264 11.6 112.4 41 195.4 183.2 195.4 353.2 0 169.4-82.4 311.6-194.8 353.2 83.6 58.4 182.4 60.6 265.8 10 211.8-197.4 211-531.4-2.4-728z" />
<glyph unicode="&#xe93e;" glyph-name="q-edge" data-tags="q-edge" d="M963.84 627.040c-82.1 160.6-259.32 252.96-452.020 252.96-237.72 0-436.8-167.36-484.88-391.32 52 92.98 172.44 158.28 298.92 158.28 158.54 0 242.18-97.86 244.5-100.36 44-47.6 66-100.78 66-166.2 0-20.8-10.62-51.64-30.22-77.14-3.14-4-12.78-9.68-12.78-22 0-10.12 6.58-19.84 18.28-28 55.72-38.74 160.74-33.62 161.020-33.62 43.272 0.122 83.713 12.135 118.26 32.941l-1.040-0.581c70.879 41.937 117.71 117.918 117.9 204.853v0.027c1 86.86-31 144.6-43.94 170.16zM425.54-55.34c-37.448 23.553-68.569 53.628-92.589 88.924l-0.691 1.076c-65.88 94.84-68.48 191.2-40.2 272 21.021 65.012 60.871 119.056 113.062 157.228l0.878 0.612c118 90.4 189.68 11.3 198.12 2-3.197 7.983-6.479 14.655-10.19 21.046l0.41-0.766c-18.48 31.86-48 72.82-113.12 107.020-67.44 35.38-141.18 37.18-155.28 37.18-77.42 0-155.8-26-215.060-71.38-39.52-30.2-85.34-81.040-93.68-149.6-2.16-24.62-5.5-125.6 46-236.54 81.080-170.068 251.618-285.498 449.116-285.498 16.721 0 33.249 0.827 49.544 2.443l-2.060-0.165c-76.24 13.24-131.7 53.28-134.26 54.42zM926.98 141.32c-2.353 1.512-5.225 2.411-8.307 2.411-2.765 0-5.362-0.723-7.61-1.991l0.078 0.040c-11.019-5.95-24.471-12.088-38.331-17.402l-2.489-0.838c-41.119-15.856-88.695-25.041-138.416-25.041-0.241 0-0.481 0-0.721 0.001h0.038c-183.34 0-343.040 126.12-343.040 288 0.24 19.549 5.031 37.925 13.361 54.19l-0.321-0.69c-31.424-27.808-57.384-60.946-76.634-98.12l-0.886-1.88c-29.84-58.74-66-176.26 26.66-303.32 13.020-17.82 46-60 112-95.34 47.14-25.3 98-39.22 143.4-39.22 70.28 0 230.86 66.88 326 217.74 1.533 2.363 2.444 5.252 2.444 8.354 0 5.491-2.855 10.315-7.162 13.069l-0.062 0.037z" />
<glyph unicode="&#xe93f;" glyph-name="q-safari" data-tags="q-safari" d="M549.38 346.62l-74.76 74.76-142.62-217.38zM512 880c-274 0-496-222-496-496s222-496 496-496 496 222 496 496-222 496-496 496zM823.7 530.42l29.56 12.26c1.806 0.767 3.907 1.213 6.111 1.213 6.634 0 12.324-4.037 14.749-9.788l0.039-0.105c0.773-1.813 1.223-3.922 1.223-6.135 0-6.63-4.032-12.318-9.778-14.745l-0.105-0.039-29.5-12.22c-1.808-0.769-3.911-1.216-6.118-1.216-6.627 0-12.313 4.029-14.742 9.771l-0.039 0.105c-0.775 1.814-1.225 3.924-1.225 6.14 0 6.608 4.005 12.28 9.72 14.721l0.104 0.040zM628.86 708l12.24 29.56c2.481 5.82 8.153 9.825 14.76 9.825 2.216 0 4.326-0.45 6.244-1.264l-0.105 0.040c5.847-2.469 9.876-8.155 9.876-14.782 0-2.207-0.447-4.31-1.255-6.223l0.039 0.105-12.26-29.56c-2.469-5.847-8.155-9.876-14.782-9.876-2.207 0-4.31 0.447-6.223 1.255l0.105-0.039c-5.849 2.468-9.88 8.155-9.88 14.783 0 2.23 0.456 4.353 1.28 6.281l-0.040-0.104zM512 776v0c8.837 0 16-7.163 16-16v0-32c0-8.837-7.163-16-16-16v0 0c-8.837 0-16 7.163-16 16v0 32c0 8.837 7.163 16 16 16v0zM362 746.16c1.813 0.773 3.922 1.223 6.135 1.223 6.63 0 12.318-4.032 14.745-9.778l0.039-0.105 12.22-29.5c0.846-1.887 1.339-4.090 1.339-6.408 0-8.837-7.163-16-16-16-6.738 0-12.503 4.165-14.861 10.060l-0.038 0.108-12.26 29.56c-0.754 1.792-1.192 3.875-1.192 6.060 0 6.626 4.027 12.31 9.767 14.741l0.105 0.039zM234.84 661.18v0c2.895 2.893 6.894 4.683 11.31 4.683s8.415-1.789 11.31-4.683v0l22.54-22.62c2.875-2.892 4.653-6.878 4.653-11.28s-1.777-8.388-4.653-11.281l0.001 0.001c-2.895-2.893-6.894-4.683-11.31-4.683s-8.415 1.789-11.31 4.683l-22.62 22.62c-2.857 2.889-4.623 6.863-4.623 11.25 0 4.417 1.789 8.415 4.683 11.31v0zM120 384v0c0 8.837 7.163 16 16 16v0h32c8.837 0 16-7.163 16-16v0 0c0-8.837-7.163-16-16-16v0h-32c-8.837 0-16 7.163-16 16v0zM200.3 237.58l-29.56-12.26c-1.806-0.767-3.907-1.213-6.111-1.213-6.634 0-12.324 4.037-14.749 9.788l-0.039 0.105c-0.773 1.813-1.223 3.922-1.223 6.135 0 6.63 4.032 12.318 9.778 14.745l0.105 0.039 29.5 12.22c1.808 0.769 3.911 1.216 6.118 1.216 6.627 0 12.313-4.029 14.742-9.771l0.039-0.105c0.775-1.814 1.225-3.924 1.225-6.14 0-6.608-4.005-12.28-9.72-14.721l-0.104-0.040zM208.96 509.58v0c-2.451-5.886-8.157-9.949-14.811-9.949-2.219 0-4.332 0.452-6.253 1.268l0.105-0.040-29.56 12.24c-5.82 2.481-9.825 8.153-9.825 14.76 0 2.216 0.45 4.326 1.264 6.244l-0.040-0.105c2.469 5.847 8.155 9.876 14.782 9.876 2.207 0 4.31-0.447 6.223-1.255l-0.105 0.039 29.56-12.26c5.843-2.47 9.869-8.154 9.869-14.779 0-2.201-0.444-4.298-1.248-6.207l0.039 0.105zM395.14 60l-12.24-29.56c-2.468-5.853-8.158-9.886-14.79-9.886-8.84 0-16.006 7.166-16.006 16.006 0 2.208 0.447 4.312 1.256 6.225l-0.039-0.105 12.26 29.56c2.397 6.003 8.162 10.168 14.899 10.168 8.837 0 16-7.163 16-16 0-2.318-0.493-4.521-1.38-6.51l0.040 0.102zM528 8c0-8.837-7.163-16-16-16v0 0c-8.837 0-16 7.163-16 16v0 32c0 8.837 7.163 16 16 16v0 0c8.837 0 16-7.163 16-16v0zM662 21.84v0c-1.813-0.773-3.922-1.223-6.135-1.223-6.63 0-12.318 4.032-14.745 9.778l-0.039 0.105-12.22 29.5c-0.769 1.808-1.216 3.911-1.216 6.118 0 6.627 4.029 12.313 9.771 14.742l0.105 0.039c1.808 0.769 3.911 1.216 6.118 1.216 6.627 0 12.313-4.029 14.742-9.771l0.039-0.105 12.26-29.56c0.754-1.792 1.192-3.875 1.192-6.060 0-6.626-4.027-12.31-9.767-14.741l-0.105-0.039zM789.16 106.82v0c-2.895-2.893-6.894-4.683-11.31-4.683s-8.415 1.789-11.31 4.683v0l-22.54 22.62c-2.875 2.892-4.653 6.878-4.653 11.28s1.777 8.388 4.653 11.281l-0.001-0.001c2.895 2.893 6.894 4.683 11.31 4.683s8.415-1.789 11.31-4.683l22.62-22.62c2.857-2.889 4.623-6.863 4.623-11.25 0-4.417-1.789-8.415-4.683-11.31v0zM572.5 323.5l-351.82-230.82 230.82 351.82 351.82 230.82zM874.16 234v0c-2.469-5.847-8.155-9.876-14.782-9.876-2.207 0-4.31 0.447-6.223 1.255l0.105-0.039-29.56 12.26c-5.847 2.469-9.876 8.155-9.876 14.782 0 2.207 0.447 4.31 1.255 6.223l-0.039-0.105c2.468 5.849 8.155 9.88 14.783 9.88 2.23 0 4.353-0.456 6.281-1.28l-0.104 0.040 29.56-12.24c5.82-2.481 9.825-8.153 9.825-14.76 0-2.216-0.45-4.326-1.264-6.244l0.040 0.105zM888 368h-32c-8.837 0-16 7.163-16 16v0 0c0 8.837 7.163 16 16 16v0h32c8.837 0 16-7.163 16-16v0 0c0-8.837-7.163-16-16-16v0z" />
<glyph unicode="&#xe940;" glyph-name="q-internet-explorer" data-tags="q-internet-explorer" d="M966.098 576.588c21.71 49.15 42.848 120.876 42.848 175.742 0 145.444-159.282 196.742-419.346 77.154-215.264 14.362-422.442-147.34-474.196-372.914 61.704 69.724 156.542 164.596 243.954 202.316-108.55-96.586-201.102-218.89-271.374-346.336-41.492-75.852-87.984-198.43-87.984-290.044 0-197.15 185.708-173 360.502-84.012 62.846-30.86 133.118-31.146 203.39-31.146 194.248 0 368.498 108.588 433.628 292.044h-241.666c-105.018-177.186-393.638-105.992-393.638 94.872h657.584c12.814 87.162-3.31 191.43-53.702 282.324zM129.118 202.246c35.422-102.3 107.406-191.742 200.532-246.608-177.482-97.88-346.534-58.192-200.532 246.608zM361.072 419.992c4 110.302 100.552 189.742 207.96 189.742 106.836 0 203.962-79.44 207.962-189.742h-415.922zM730.144 795.192c42.85 20.574 97.126 44.006 145.116 44.006 62.844 0 108.548-43.434 108.548-107.444 0-40.006-14.854-98.014-29.138-135.734-52.56 84.584-131.972 163.168-224.526 199.172z" />
<glyph unicode="&#xe941;" glyph-name="q-facebook" data-tags="q-facebook" horiz-adv-x="896" d="M800 832h-704c-53.019 0-96-42.981-96-96v0-704c0-53.019 42.981-96 96-96v0h274.5v304.62h-126v143.38h126v109.28c0 124.3 74 192.96 187.34 192.96 54.28 0 111.040-9.68 111.040-9.68v-122h-62.54c-61.62 0-80.84-38.24-80.84-77.46v-93.1h137.56l-22-143.38h-115.56v-304.62h274.5c53.019 0 96 42.981 96 96v0 704c0 53.019-42.981 96-96 96v0z" />
<glyph unicode="&#xe942;" glyph-name="q-twitter" data-tags="q-twitter" d="M918.74 592.568c0.65-9.096 0.65-18.194 0.65-27.29 0-277.44-211.166-597.116-597.116-597.116-118.904 0-229.36 34.438-322.274 94.212 16.894-1.948 33.136-2.598 50.68-2.598 98.11 0 188.426 33.136 260.548 89.664-92.264 1.95-169.584 62.376-196.224 145.544 12.996-1.948 25.99-3.248 39.636-3.248 18.842 0 37.686 2.6 55.228 7.146-96.162 19.494-168.286 103.96-168.286 205.97v2.598c27.938-15.594 60.428-25.34 94.862-26.638-56.528 37.686-93.562 102.010-93.562 174.782 0 38.984 10.394 74.72 28.588 105.908 103.31-127.35 258.6-210.516 432.73-219.614-3.248 15.594-5.198 31.836-5.198 48.080 0 115.656 93.564 209.868 209.868 209.868 60.426 0 115.004-25.34 153.34-66.274 47.43 9.096 92.912 26.64 133.198 50.68-15.596-48.732-48.732-89.666-92.264-115.654 42.234 4.546 83.168 16.244 120.852 32.486-28.584-41.582-64.322-78.616-105.256-108.506z" />
<glyph unicode="&#xe943;" glyph-name="q-instagram" data-tags="q-instagram" horiz-adv-x="896" d="M448.2 614c-127.2 0-229.8-102.6-229.8-229.8s102.6-229.8 229.8-229.8 229.8 102.6 229.8 229.8-102.6 229.8-229.8 229.8zM448.2 234.8c-82.2 0-149.4 67-149.4 149.4s67 149.4 149.4 149.4 149.4-67 149.4-149.4-67.2-149.4-149.4-149.4zM741 623.4c0-29.8-24-53.6-53.6-53.6-29.8 0-53.6 24-53.6 53.6s24 53.6 53.6 53.6 53.6-24 53.6-53.6zM893.2 569c-3.4 71.8-19.8 135.4-72.4 187.8-52.4 52.4-116 68.8-187.8 72.4-74 4.2-295.8 4.2-369.8 0-71.6-3.4-135.2-19.8-187.8-72.2s-68.8-116-72.4-187.8c-4.2-74-4.2-295.8 0-369.8 3.4-71.8 19.8-135.4 72.4-187.8s116-68.8 187.8-72.4c74-4.2 295.8-4.2 369.8 0 71.8 3.4 135.4 19.8 187.8 72.4 52.4 52.4 68.8 116 72.4 187.8 4.2 74 4.2 295.6 0 369.6zM797.6 120c-15.6-39.2-45.8-69.4-85.2-85.2-59-23.4-199-18-264.2-18s-205.4-5.2-264.2 18c-39.2 15.6-69.4 45.8-85.2 85.2-23.4 59-18 199-18 264.2s-5.2 205.4 18 264.2c15.6 39.2 45.8 69.4 85.2 85.2 59 23.4 199 18 264.2 18s205.4 5.2 264.2-18c39.2-15.6 69.4-45.8 85.2-85.2 23.4-59 18-199 18-264.2s5.4-205.4-18-264.2z" />
<glyph unicode="&#xe944;" glyph-name="q-youtube" data-tags="q-youtube" horiz-adv-x="1152" d="M1099.31 647.834c-12.562 47.3-49.574 84.552-96.568 97.194-85.18 22.972-426.742 22.972-426.742 22.972s-341.56 0-426.742-22.972c-46.994-12.644-84.006-49.894-96.568-97.194-22.824-85.734-22.824-264.61-22.824-264.61s0-178.876 22.824-264.61c12.562-47.3 49.574-83 96.568-95.642 85.182-22.972 426.742-22.972 426.742-22.972s341.56 0 426.742 22.972c46.994 12.642 84.006 48.342 96.568 95.642 22.824 85.734 22.824 264.61 22.824 264.61s0 178.876-22.824 264.61zM464.29 220.818v324.812l285.478-162.41-285.478-162.402z" />
<glyph unicode="&#xe945;" glyph-name="q-whatsapp" data-tags="q-whatsapp" horiz-adv-x="896" d="M761.8 701.8c-83.8 84-195.4 130.2-314 130.2-244.8 0-444-199.2-444-444 0-78.2 20.4-154.6 59.2-222l-63-230 235.4 61.8c64.8-35.4 137.8-54 212.2-54h0.2c244.6 0 448.2 199.2 448.2 444 0 118.6-50.4 230-134.2 314zM447.8 18.6c-66.4 0-131.4 17.8-188 51.4l-13.4 8-139.6-36.6 37.2 136.2-8.8 14c-37 58.8-56.4 126.6-56.4 196.4 0 203.4 165.6 369 369.2 369 98.6 0 191.2-38.4 260.8-108.2s112.4-162.4 112.2-261c0-203.6-169.8-369.2-373.2-369.2zM650.2 295c-11 5.6-65.6 32.4-75.8 36-10.2 3.8-17.6 5.6-25-5.6s-28.6-36-35.2-43.6c-6.4-7.4-13-8.4-24-2.8-65.2 32.6-108 58.2-151 132-11.4 19.6 11.4 18.2 32.6 60.6 3.6 7.4 1.8 13.8-1 19.4s-25 60.2-34.2 82.4c-9 21.6-18.2 18.6-25 19-6.4 0.4-13.8 0.4-21.2 0.4s-19.4-2.8-29.6-13.8c-10.2-11.2-38.8-38-38.8-92.6s39.8-107.4 45.2-114.8c5.6-7.4 78.2-119.4 189.6-167.6 70.4-30.4 98-33 133.2-27.8 21.4 3.2 65.6 26.8 74.8 52.8s9.2 48.2 6.4 52.8c-2.6 5-10 7.8-21 13.2z" />
<glyph unicode="&#xe946;" glyph-name="q-telegram" data-tags="q-telegram" horiz-adv-x="992" d="M496 880c-274 0-496-222-496-496s222-496 496-496 496 222 496 496-222 496-496 496zM739.6 540.2l-81.4-383.6c-6-27.2-22.2-33.8-44.8-21l-124 91.4-59.8-57.6c-6.6-6.6-12.2-12.2-25-12.2l8.8 126.2 229.8 207.6c10 8.8-2.2 13.8-15.4 5l-284-178.8-122.4 38.2c-26.6 8.4-27.2 26.6 5.6 39.4l478.2 184.4c22.2 8 41.6-5.4 34.4-39z" />
<glyph unicode="&#xe947;" glyph-name="q-css" data-tags="q-css" horiz-adv-x="768" d="M0 832l69.8-791.6 314.2-104.4 314.2 104.4 69.8 791.6h-768zM626.2 672l-9.6-94.6-231.2-98.8h223l-25.6-293.2-196.4-57.4-197.6 58.4-12.8 147.8h97.8l6.4-76.6 105.2-26.6 109.4 30.8 7.4 123.2-333 1-7.2 92.6 237.2 98.8h-245.8l-11.6 94.6h484.4z" />
<glyph unicode="&#xe948;" glyph-name="q-icons" data-tags="q-icons" d="M213.32 465.18c10.849-11.010 25.923-17.831 42.59-17.831s31.741 6.821 42.583 17.824l0.007 0.007 169.32 171.24c27.3 27.66 44.162 65.68 44.162 107.639 0 47.132-21.275 89.295-54.746 117.408l-0.235 0.193c-57.32 47.84-144.18 43.68-201-8.42-56.68 52.22-143.56 56.48-201.060 8.38-33.701-28.331-54.97-70.51-54.97-117.657 0-41.911 16.808-79.897 44.050-107.584l-0.020 0.021zM96 812.54c14.104 11.69 32.388 18.783 52.327 18.783 0.258 0 0.515-0.001 0.772-0.004h-0.039c26.24-0.165 49.915-11.010 66.923-28.403l0.017-0.017 40-40.34 40 40.38c33.38 33.72 86 37.88 120 9.62 19.642-16.483 32.041-41.043 32.041-68.498 0-24.405-9.796-46.522-25.672-62.632l0.011 0.011-163.44-171.28-169.38 171.22c-15.797 16.114-25.546 38.208-25.546 62.579 0 1.534 0.039 3.059 0.115 4.574l-0.009-0.213c1.131 25.867 13.234 48.699 31.737 64.104l0.143 0.116zM521.14 320h-96l-14.16 28.42c-8.012 20.963-27.958 35.58-51.319 35.58 0 0-0.001 0-0.001 0h-143.42c-0.009 0-0.020 0-0.031 0-23.331 0-43.256-14.58-51.162-35.125l-0.127-0.375-14-28.42h-96c-0.024 0-0.052 0-0.080 0-30.266 0-54.806-24.519-54.84-54.777v-338.523c0.034-30.261 24.574-54.78 54.84-54.78 0.007 0 0.014 0 0.021 0h466.279c0.006 0 0.013 0 0.020 0 30.266 0 54.806 24.519 54.84 54.777v338.523c-0.080 30.227-24.602 54.7-54.84 54.7-0.007 0-0.014 0-0.021 0h0.001zM512-64h-448v320h126.6l31.62 63.92h131.46l14.18-28.42 17.68-35.5h126.46zM969.24 896c-2.78-0.005-5.5-0.245-8.146-0.701l0.286 0.041-274.28-45.7c-27.1-4.52-47.1-31.52-47.1-63.36v-223.88c-18.762 8.181-40.621 12.941-63.592 12.941-0.143 0-0.287 0-0.43-0.001h0.022c-71.76 0-128-42.16-128-96s56.24-96 128-96 128 42.16 128 96v306.94c-0.015 0.195-0.024 0.421-0.024 0.65s0.009 0.455 0.026 0.68l-0.002-0.030 256 42.66v-204.24c-18.813 8.405-40.769 13.3-63.868 13.3-0.046 0-0.093 0-0.139 0h0.007c-70.7 0-128-42.98-128-96s57.3-96 128-96 128 42.98 128 96v288.7c0 35.82-25.020 64-54.76 64zM576 447.34c-38.5 0-64 19.26-64 32s25.5 32 64 32 64-19.24 64-32-25.5-32-64-32zM896 511.34c-39.7 0-64 20.72-64 32s24.3 32 64 32 64-20.72 64-32-24.3-32-64-32zM288 224c-70.692 0-128-57.308-128-128s57.308-128 128-128c70.692 0 128 57.308 128 128v0c-0.080 70.66-57.34 127.92-127.993 128h-0.007zM288 32c-35.346 0-64 28.654-64 64s28.654 64 64 64c35.346 0 64-28.654 64-64v0c0-35.346-28.654-64-64-64v0zM848.38 337.68c2.132 4.172 3.382 9.1 3.382 14.32 0 17.679-14.332 32.012-32.012 32.012-12.46 0-23.256-7.118-28.546-17.51l-0.084-0.182-135.12-270.32h220.62l-104.4-176.12c-2.637-4.55-4.193-10.012-4.193-15.836 0-11.86 6.452-22.214 16.039-27.741l0.155-0.082c4.527-2.653 9.969-4.22 15.776-4.22 0.001 0 0.002 0 0.004 0v0c0.011 0 0.025 0 0.038 0 11.831 0 22.162 6.42 27.7 15.967l0.082 0.153 159.060 271.88h-227.38z" />
<glyph unicode="&#xe949;" glyph-name="q-file" data-tags="q-file" horiz-adv-x="768" d="M739.8 700.2l-167.8 167.8c-18 18-42.4 28.2-67.8 28.2h-408.2c-53-0.2-96-43.2-96-96.2v-832c0-53 43-96 96-96h576c53 0 96 43 96 96v664.2c0 25.4-10.2 50-28.2 68zM664.2 640h-152.2v152.2l152.2-152.2zM96-32v832h320v-208c0-26.6 21.4-48 48-48h208v-576h-576z" />
<glyph unicode="&#xe94a;" glyph-name="q-package" data-tags="q-package" d="M896 192c0-16.213-8.96-30.293-22.613-37.547l-337.067-189.44c-6.827-5.12-15.36-7.68-24.32-7.68s-17.493 2.56-24.32 7.68l-337.067 189.44c-13.653 7.253-22.613 21.333-22.613 37.547v384c0 16.213 8.96 30.293 22.613 37.547l337.067 189.44c6.827 5.12 15.36 7.68 24.32 7.68s17.493-2.56 24.32-7.68l337.067-189.44c13.653-7.253 22.613-21.333 22.613-37.547v-384zM512 718.933l-80.64-45.653 251.307-144.64 83.627 47.36-254.293 142.933zM257.707 576l254.293-142.933 83.627 46.933-250.88 145.067-87.040-49.067zM213.333 217.173l256-144.213v286.293l-256 143.787v-285.867zM810.667 217.173v285.867l-256-143.787v-286.293l256 144.213z" />
<glyph unicode="&#xe94b;" glyph-name="q-package-open" data-tags="q-package-open" d="M85.333 428.373c-21.333 11.947-27.733 37.973-15.787 58.453l64 110.507c4.693 8.533 11.947 14.507 20.053 17.92l334.080 187.733c6.827 5.12 15.36 7.68 24.32 7.68s17.493-2.56 24.32-7.68l337.067-189.44c8.107-4.267 14.933-11.093 18.773-19.627l61.867-107.52c11.947-20.48 4.693-46.507-15.36-58.027l-42.667-24.747v-211.627c0-16.213-8.96-30.293-22.613-37.547l-337.067-189.44c-6.827-5.12-15.36-7.68-24.32-7.68s-17.493 2.56-24.32 7.68l-337.067 189.44c-13.653 7.253-22.613 21.333-22.613 37.547v236.373c-12.8-7.253-29.013-7.68-42.667 0zM512 718.933v0-285.867l254.293 142.933-254.293 142.933zM213.333 217.173l256-144.213v286.293l-256 143.787v-285.867zM810.667 217.173v137.387l-213.333-123.733c-14.080-7.68-29.867-7.253-42.667-0.427v-157.44l256 144.213zM590.933 325.973l267.947 154.88-24.747 43.093-267.947-154.88 24.747-43.093z" />
<glyph unicode="&#xe94c;" glyph-name="q-star" data-tags="q-star" horiz-adv-x="1152" d="M1056.2 553l-292.2 42.6-130.6 264.8c-23.4 47.2-91.2 47.8-114.8 0l-130.6-264.8-292.2-42.6c-52.4-7.6-73.4-72.2-35.4-109.2l211.4-206-50-291c-9-52.6 46.4-92 92.8-67.4l261.4 137.4 261.4-137.4c46.4-24.4 101.8 14.8 92.8 67.4l-50 291 211.4 206c38 37 17 101.6-35.4 109.2zM777.2 271.4l47.4-276.8-248.6 130.6-248.6-130.6 47.4 276.8-201.2 196 278 40.4 124.4 252 124.4-252 278-40.4-201.2-196z" />
<glyph unicode="&#xe94d;" glyph-name="q-tools" data-tags="q-tools" d="M1005.2 117l-248.8 249c-31.2 31.2-72.2 46.8-113.2 46.8-30.8 0-61.6-8.8-88.2-26.6l-171 171v146.8l-256 192-128-128 192-256h146.8l171-171c-41.2-62.2-34.4-146.6 20.4-201.4l249-249c12.4-12.4 28.8-18.8 45.2-18.8s32.8 6.2 45.2 18.8l135.8 135.8c24.8 25.2 24.8 65.6-0.2 90.6zM320 579.8v-3.8h-96l-139.4 186 49.4 49.4 186-139.4v-92.2zM824.2-64l-248.8 249c-18.2 18.2-28.2 42.2-28.2 67.8s10 49.8 28.2 67.8c18.2 18.2 42.2 28.2 67.8 28.2s49.8-10 67.8-28.2l249-248.8-135.8-135.8zM128 32c0-17.6 14.4-32 32-32s32 14.4 32 32-14.4 32-32 32-32-14.4-32-32zM553.6 762.2c45.4 45.4 105.2 69.8 167.6 69.8 13.8 0 27.6-1.2 41.4-3.6l-138.6-138.8 27.6-166 166.2-27.6 138.6 138.6c13.4-76.4-10.6-153.6-66.2-209-17.8-17.8-38.2-32-60-43l47.2-47.2c20.8 12.4 40.4 27.2 58 45 75.6 75.6 105.4 182.8 79.4 286.6-4.6 19-19.4 34-38.2 39.2-19 5.2-39.4 0-53.4-14l-127.8-127.8-88.4 14.8-14.8 88.4 127.8 127.8c13.8 13.8 19.2 34.2 14 53-5.2 19-20.4 33.6-39.4 38.4-103.4 25.8-210.6-3.8-286.4-79.4-25.8-25.8-45.8-55.8-60.2-88v-135.6l44.2-44.2c-19.2 80.8 3.2 164.4 61.4 222.6zM214-38.2c-33.2-33.2-91.2-33.2-124.4 0-34.2 34.2-34.2 90.2 0 124.4l292.2 292.2-45.2 45.2-292.2-292.2c-59.2-59.2-59.2-155.6 0-215 28.6-28.6 66.8-44.4 107.4-44.4s78.8 15.8 107.4 44.6l203.6 203.4c-13.4 18.4-23.6 38.6-31 59.6l-217.8-217.8z" />
<glyph unicode="&#xe94e;" glyph-name="q-article" data-tags="q-article" horiz-adv-x="1152" d="M1104 768h-928c-26.468 0-48-21.534-48-48v-16h-80c-26.51 0-48-21.49-48-48v-560c0-53.020 42.98-96 96-96h1008c26.466 0 48 21.534 48 48v672c0 26.466-21.534 48-48 48zM64 96v544h64v-544c0-17.644-14.356-32-32-32s-32 14.356-32 32zM1088 64h-901.484c3.475 9.513 5.484 20.495 5.484 31.947 0 0.019 0 0.038 0 0.056v-0.003 608h896v-640zM280 256h336c13.254 0 24 10.746 24 24v336c0 13.254-10.746 24-24 24h-336c-13.254 0-24-10.746-24-24v-336c0-13.254 10.746-24 24-24zM320 576h256v-256h-256v256zM256 152v16c0 13.254 10.746 24 24 24h336c13.254 0 24-10.746 24-24v-16c0-13.254-10.746-24-24-24h-336c-13.254 0-24 10.746-24 24zM704 152v16c0 13.254 10.746 24 24 24h272c13.254 0 24-10.746 24-24v-16c0-13.254-10.746-24-24-24h-272c-13.254 0-24 10.746-24 24zM704 280v16c0 13.254 10.746 24 24 24h272c13.254 0 24-10.746 24-24v-16c0-13.254-10.746-24-24-24h-272c-13.254 0-24 10.746-24 24zM704 536v16c0 13.254 10.746 24 24 24h272c13.254 0 24-10.746 24-24v-16c0-13.254-10.746-24-24-24h-272c-13.254 0-24 10.746-24 24zM704 408v16c0 13.254 10.746 24 24 24h272c13.254 0 24-10.746 24-24v-16c0-13.254-10.746-24-24-24h-272c-13.254 0-24 10.746-24 24z" />
<glyph unicode="&#xe94f;" glyph-name="q-zoom-plus" data-tags="q-zoom-plus" d="M624 504v-48c0-13.2-10.8-24-24-24h-136v-136c0-13.2-10.8-24-24-24h-48c-13.2 0-24 10.8-24 24v136h-136c-13.2 0-24 10.8-24 24v48c0 13.2 10.8 24 24 24h136v136c0 13.2 10.8 24 24 24h48c13.2 0 24-10.8 24-24v-136h136c13.2 0 24-10.8 24-24zM1017-75.8l-45.2-45.2c-9.4-9.4-24.6-9.4-34 0l-242.8 242.8c-4.6 4.6-7 10.6-7 17v26.4c-73-63-168-101.2-272-101.2-229.8 0-416 186.2-416 416s186.2 416 416 416 416-186.2 416-416c0-104-38.2-199-101.2-272h26.4c6.4 0 12.4-2.6 17-7l242.8-242.8c9.4-9.4 9.4-24.6 0-34zM736 480c0 176.8-143.2 320-320 320s-320-143.2-320-320 143.2-320 320-320 320 143.2 320 320z" />
<glyph unicode="&#xe950;" glyph-name="q-zoom-min" data-tags="q-zoom-min" d="M624 504v-48c0-13.2-10.8-24-24-24h-368c-13.2 0-24 10.8-24 24v48c0 13.2 10.8 24 24 24h368c13.2 0 24-10.8 24-24zM1017-75.8l-45.2-45.2c-9.4-9.4-24.6-9.4-34 0l-242.8 242.8c-4.6 4.6-7 10.6-7 17v26.4c-73-63-168-101.2-272-101.2-229.8 0-416 186.2-416 416s186.2 416 416 416 416-186.2 416-416c0-104-38.2-199-101.2-272h26.4c6.4 0 12.4-2.6 17-7l242.8-242.8c9.4-9.4 9.4-24.6 0-34zM736 480c0 176.8-143.2 320-320 320s-320-143.2-320-320 143.2-320 320-320 320 143.2 320 320z" />
<glyph unicode="&#xe951;" glyph-name="q-search" data-tags="q-search" d="M1017-67.2l-258 258c-4.6 4.6-10.6 7-17 7h-20.6c68.6 74.2 110.6 173.2 110.6 282.2 0 229.8-186.2 416-416 416s-416-186.2-416-416 186.2-416 416-416c109 0 208 42 282.2 110.4v-20.4c0-6.4 2.6-12.4 7-17l258-258c9.4-9.4 24.6-9.4 34 0l19.8 19.8c9.4 9.4 9.4 24.6 0 34zM416 128c-194.6 0-352 157.4-352 352s157.4 352 352 352 352-157.4 352-352-157.4-352-352-352z" />
<glyph unicode="&#xe952;" glyph-name="q-home" data-tags="q-home" horiz-adv-x="1152" d="M1146.96 456.18l-525.76 423.82c-12.223 9.984-28 16.034-45.19 16.034s-32.967-6.049-45.319-16.136l0.129 0.102-525.76-423.82c-3.087-2.48-5.046-6.255-5.046-10.487 0-3.242 1.15-6.216 3.064-8.536l-0.018 0.023 28.4-35c2.521-3.094 6.331-5.054 10.599-5.054 3.272 0 6.275 1.152 8.626 3.073l-0.024-0.019 77.34 62.38v-558.56c0-17.673 14.327-32 32-32v0h832c17.673 0 32 14.327 32 32v0 558.36l77.6-62.58c2.327-1.897 5.328-3.046 8.599-3.046 4.267 0 8.077 1.957 10.582 5.021l0.019 0.024 28.38 35c1.759 2.347 2.817 5.308 2.817 8.515 0 4.352-1.947 8.249-5.017 10.868l-0.020 0.017zM480-64v320h192v-320zM960-64h-224v352c0 17.673-14.327 32-32 32v0h-256c-17.673 0-32-14.327-32-32v0-352h-224v578.16l375.42 302.8c2.268 1.868 5.202 3 8.4 3s6.132-1.132 8.423-3.018l-0.023 0.018 375.78-302.96z" />
<glyph unicode="&#xe953;" glyph-name="q-trash" data-tags="q-trash" horiz-adv-x="896" d="M592 32h32c8.837 0 16 7.163 16 16v0 544c0 8.837-7.163 16-16 16v0h-32c-8.837 0-16-7.163-16-16v0-544c0-8.837 7.163-16 16-16v0zM272 32h32c8.837 0 16 7.163 16 16v0 544c0 8.837-7.163 16-16 16v0h-32c-8.837 0-16-7.163-16-16v0-544c0-8.837 7.163-16 16-16v0zM880 768h-208l-67.2 89.6c-17.7 23.421-45.501 38.4-76.8 38.4v0h-160c-31.299 0-59.1-14.979-76.625-38.159l-0.175-0.241-67.2-89.6h-208c-8.837 0-16-7.163-16-16v0-32c0-8.837 7.163-16 16-16v0h48v-736c0-53.019 42.981-96 96-96v0h576c53.019 0 96 42.981 96 96v0 736h48c8.837 0 16 7.163 16 16v0 32c0 8.837-7.163 16-16 16v0zM342.4 819.2c5.92 7.784 15.174 12.767 25.595 12.8h160.005c10.426-0.033 19.68-5.016 25.542-12.721l0.058-0.079 38.4-51.2h-288zM768-32c0-17.673-14.327-32-32-32v0h-576c-17.673 0-32 14.327-32 32v0 736h640zM432 32h32c8.837 0 16 7.163 16 16v0 544c0 8.837-7.163 16-16 16v0h-32c-8.837 0-16-7.163-16-16v0-544c0-8.837 7.163-16 16-16v0z" />
<glyph unicode="&#xe954;" glyph-name="q-cog" data-tags="q-cog" d="M965.392 297.448l-65.22 37.654c1.958 14.684 3.075 31.661 3.075 48.899s-1.117 34.215-3.284 50.863l0.209-1.964 65.22 37.654c19.152 11.056 28.39 33.804 22.092 55.002-22.428 75.498-62.35 143.456-115.070 199.19-15.268 16.14-39.634 19.672-58.874 8.564l-65.124-37.596c-24.475 18.797-52.351 35.208-82.151 47.995l-2.527 0.965v75.228c0 22.26-15.304 41.608-36.968 46.734-75.288 17.818-154.236 17.82-229.54 0-21.662-5.126-36.968-24.472-36.968-46.734v-75.228c-32.327-13.752-60.203-30.162-85.603-49.641l0.925 0.681-65.124 37.596c-19.242 11.108-43.608 7.576-58.874-8.564-52.72-55.734-92.642-123.694-115.070-199.19-6.298-21.198 2.94-43.944 22.092-55.002l65.22-37.654c-1.958-14.684-3.075-31.661-3.075-48.899s1.117-34.215 3.284-50.863l-0.209 1.964-65.22-37.654c-19.152-11.056-28.39-33.804-22.092-55.002 22.428-75.496 62.35-143.456 115.070-199.19 15.268-16.14 39.634-19.672 58.874-8.566l65.124 37.596c24.474-18.798 52.351-35.207 82.151-47.994l2.527-0.964v-75.228c0-22.26 15.304-41.608 36.968-46.734 75.29-17.818 154.236-17.82 229.54 0 21.662 5.126 36.968 24.472 36.968 46.734v75.228c32.326 13.752 60.203 30.162 85.604 49.64l-0.926-0.682 65.124-37.596c19.24-11.108 43.606-7.576 58.874 8.566 52.72 55.734 92.642 123.694 115.070 199.19 6.298 21.198-2.94 43.944-22.092 55.002zM834.434 96.526l-92.618 53.48c-53.976-46.142-73.118-57.752-142.078-82.118v-106.958c-26.375-5.694-56.676-8.955-87.738-8.955s-61.363 3.261-90.578 9.459l2.84-0.504v106.958c-67.242 23.758-86.71 34.79-142.078 82.118l-92.618-53.48c-39.42 44.18-69.378 95.978-87.858 151.916l92.658 53.48c-13.070 70.834-13.076 93.288 0 164.158l-92.658 53.48c18.48 55.938 48.44 107.738 87.858 151.938l92.618-53.52c54.754 46.868 74.126 58.13 142.078 82.138v106.956c26.376 5.703 56.675 8.97 87.738 8.97s61.363-3.267 90.575-9.475l-2.837 0.505v-106.958c67.956-24.010 87.33-35.274 142.078-82.138l92.618 53.52c39.418-44.198 69.378-95.998 87.858-151.938l-92.658-53.48c13.072-70.852 13.076-93.288 0-164.158l92.658-53.48c-18.48-55.936-48.438-107.736-87.858-151.914zM512 576c-105.87 0-192-86.13-192-192s86.13-192 192-192 192 86.13 192 192-86.13 192-192 192zM512 256c-70.58 0-128 57.42-128 128s57.42 128 128 128 128-57.42 128-128-57.42-128-128-128z" />
<glyph unicode="&#xe955;" glyph-name="q-cogs" data-tags="q-cogs" horiz-adv-x="1280" d="M1077.2 503.2l-5 7.8c-8.2-0.6-16.2-0.6-24.4 0l-5-8c-11.6-18.4-34.2-26.8-55-20.2-27.6 8.6-46 17.6-68.6 36.2-18 14.8-22.4 40.6-10.8 60.8l5 8.6c-4.6 6.8-8.6 13.8-12.2 21.2h-18.2c-23.2 0-42.8 16.4-47.2 39.2-5.2 27.4-5.4 48.4 0.2 77 4.2 22.6 24.2 39 47.2 39h18c3.6 7.4 7.6 14.4 12.2 21.2l-5.2 9c-11.6 20-7.2 45.4 10.4 60.6 21.2 18.2 39.4 28.6 67 38 21.6 7.4 45.4-1.4 57-21.2l5.2-8.8c8.2 0.6 16.2 0.6 24.4 0l5.2 8.8c11.6 19.8 35.4 28.6 57.2 21 26.6-9 44.6-19.2 67-38.2 17.6-15 21.8-40.4 10.2-60.4l-5.2-8.8c4.6-6.8 8.6-13.8 12.2-21.2h10.2c23.2 0 42.8-16.4 47.2-39.2 5.2-27.4 5.4-48.4-0.2-77-4.2-22.6-24.2-39-47.2-39h-10c-3.6-7.4-7.6-14.4-12.2-21.2l5-8.6c11.8-20.4 7-46.2-11-61-21.4-17.6-39.8-26.8-68-35.8-21-6.6-43.8 1.6-55.4 20.2zM1101.6 572.2l21.2-36.6c13.4 5.6 25.8 12.8 37.4 21.6l-21.2 36.6 12.8 15c9.6 11.4 17.2 24.2 22 38.2l6.6 18.6h42.2c1.8 14.2 1.8 28.8 0 43h-42.2l-6.6 18.6c-5 14-12.4 26.8-22 38.2l-12.8 15 21 36.8c-11.4 8.8-24 16-37.4 21.6l-21.2-36.6-19.4 3.6c-14.6 2.8-29.6 2.8-44.2 0l-19.4-3.6-21.2 36.6c-13.2-5.4-25.8-12.8-37.2-21.6l21.2-36.6-12.8-15c-9.6-11.4-17.2-24.2-22-38.2l-6.6-18.6h-42.2c-1.8-14.2-1.8-28.8 0-43h42.2l6.6-18.6c5-14 12.4-26.8 22-38.2l12.8-15-21.2-36.8c11.4-8.8 24-16 37.4-21.6l21.2 36.6 19.4-3.6c14.6-2.8 29.6-2.8 44.2 0l19.4 3.6zM290.6-12.8v63.2c-25.8 11-50.2 25.2-72.8 42.2l-55-31.8c-19.6-11.2-44.2-7.4-59.4 9.2-48.4 52.6-77 99-101.2 176.2-6.8 21.4 2.2 44.6 21.6 56l54.6 31.8c-3.4 28-3.4 56.2 0 84.2l-54.6 31.6c-19.4 11.2-28.4 34.6-21.6 56 24.2 76.8 52.4 123.2 101.2 176.2 15.2 16.6 40 20.4 59.4 9.2l54.8-31.8c22.6 17 47 31 72.8 42.2v63.2c0 22.6 15.6 42 37.6 46.8 69.4 15.6 124 17.4 203.4 0 22-4.8 37.8-24.4 37.8-46.8v-63.2c25.8-11 50.2-25.2 72.8-42l54.8 31.6c19.6 11.2 44.4 7.4 59.6-9.2 53.8-59.2 83-111.8 104.2-177 6.8-21-1.6-43.8-20.4-55.4l-50-31.6c3.4-28 3.4-56.2 0-84.2l56.2-35c17.2-10.8 26-31.2 21.6-51-13.8-62.6-66-129.2-111.8-178.4-15.2-16.4-39.8-20-59.2-8.8l-55 31.8c-22.6-17-47-31-72.8-42.2v-63.2c0-22.4-15.6-42-37.6-46.8-75-16.6-129.8-16.4-203.8 0-21.6 5-37.2 24.6-37.2 47zM354.6-0.4c49.6-10 101-10 150.6 0v95.4l21.4 7.6c33.6 11.8 64.6 29.8 91.8 53l17.2 14.8 82.8-47.8c33.6 38.2 68 82.6 84.2 130.4l-82.8 47.8 4.2 22.2c6.4 35.2 6.4 71 0 106.2l-4.2 22.2 82.8 47.8c-16.2 47.8-50.6 92.4-84.2 130.4l-82.8-47.8-17.2 14.8c-27.2 23.4-58 41.2-91.8 53l-21.4 7.6v95.2c-49.6 10-101 10-150.6 0v-95.4l-21.4-7.6c-33.6-11.8-64.6-29.8-91.8-53l-17.2-14.8-82.8 47.8c-32.349-36.632-58.026-80.034-74.584-127.701l-0.816-2.699 82.8-47.8-4.2-22.2c-6.4-35.2-6.4-71 0-106.2l4.2-22.2-82.8-47.8c16.2-47.8 41.8-92.4 75.4-130.4l82.8 47.8 17.2-14.8c27.2-23.4 58-41.2 91.8-53l21.4-7.6v-95.2zM431.4 210.2c-91.4 0-165.8 74.4-165.8 165.8s74.4 165.8 165.8 165.8 165.8-74.4 165.8-165.8-74.4-165.8-165.8-165.8zM431.4 477.8c-56 0-101.8-45.6-101.8-101.8s45.6-101.8 101.8-101.8c56 0 101.8 45.6 101.8 101.8s-45.6 101.8-101.8 101.8zM1077.2-105.6l-5 7.8c-8.2-0.6-16.2-0.6-24.4 0l-5-8c-11.6-18.4-34.2-26.8-55-20.2-27.6 8.6-46 17.6-68.6 36.2-18 14.8-22.4 40.6-10.8 60.8l5 8.6c-4.6 6.8-8.6 13.8-12.2 21.2h-18.2c-23.2 0-42.8 16.4-47.2 39.2-5.2 27.4-5.4 48.4 0.2 77 4.2 22.6 24.2 39 47.2 39h18c3.6 7.4 7.6 14.4 12.2 21.2l-5.2 9c-11.6 20-7.2 45.4 10.4 60.6 21.2 18.2 39.4 28.6 67 38 21.6 7.4 45.4-1.4 57-21.2l5.2-8.8c8.2 0.6 16.2 0.6 24.4 0l5.2 8.8c11.6 19.8 35.4 28.6 57.2 21 26.6-9 44.6-19.2 67-38.2 17.6-15 21.8-40.4 10.2-60.4l-5.2-8.8c4.6-6.8 8.6-13.8 12.2-21.2h10.2c23.2 0 42.8-16.4 47.2-39.2 5.2-27.4 5.4-48.4-0.2-77-4.2-22.6-24.2-39-47.2-39h-10c-3.6-7.4-7.6-14.4-12.2-21.2l5-8.6c11.8-20.4 7-46.2-11-61-21.4-17.6-39.8-26.8-68-35.8-21-6.4-43.8 1.8-55.4 20.2zM1101.6-36.4l21.2-36.6c13.4 5.6 25.8 12.8 37.4 21.6l-21.2 36.6 12.8 15c9.6 11.4 17.2 24.2 22 38.2l6.6 18.6h42.2c1.8 14.2 1.8 28.8 0 43h-42.2l-6.6 18.6c-5 14-12.4 26.8-22 38.2l-12.8 15 21.2 36.6c-11.4 8.8-24 16-37.4 21.6l-21.2-36.6-19.4 3.6c-14.6 2.8-29.6 2.8-44.2 0l-19.4-3.6-21.2 36.6c-13.4-5.6-25.8-12.8-37.4-21.6l21.2-36.6-12.8-15c-9.6-11.4-17.2-24.2-22-38.2l-6.6-18.6h-42.2c-1.8-14.2-1.8-28.8 0-43h42.2l6.6-18.6c5-14 12.4-26.8 22-38.2l12.8-15-21.2-36.6c11.4-8.8 24-16 37.4-21.6l21.2 36.6 19.4-3.6c14.6-2.8 29.6-2.8 44.2 0l19.4 3.6zM1120 80c0 35.4-28.6 64-64 64s-64-28.6-64-64 28.6-64 64-64 64 28.6 64 64zM1120 688.6c0 35.4-28.6 64-64 64s-64-28.6-64-64 28.6-64 64-64 64 28.8 64 64z" />
<glyph unicode="&#xe956;" glyph-name="q-users" data-tags="q-users" horiz-adv-x="1280" d="M192 448c70.6 0 128 57.4 128 128s-57.4 128-128 128-128-57.4-128-128 57.4-128 128-128zM1088 448c70.6 0 128 57.4 128 128s-57.4 128-128 128-128-57.4-128-128 57.4-128 128-128zM1152 384h-128c-35.2 0-67-14.2-90.2-37.2 80.6-44.2 137.8-124 150.2-218.8h132c35.4 0 64 28.6 64 64v64c0 70.6-57.4 128-128 128zM640 384c123.8 0 224 100.2 224 224s-100.2 224-224 224-224-100.2-224-224 100.2-224 224-224zM793.6 320h-16.6c-41.6-20-87.8-32-137-32s-95.2 12-137 32h-16.6c-127.2 0-230.4-103.2-230.4-230.4v-57.6c0-53 43-96 96-96h576c53 0 96 43 96 96v57.6c0 127.2-103.2 230.4-230.4 230.4zM346.2 346.8c-23.2 23-55 37.2-90.2 37.2h-128c-70.6 0-128-57.4-128-128v-64c0-35.4 28.6-64 64-64h131.8c12.6 94.8 69.8 174.6 150.4 218.8z" />
<glyph unicode="&#xe957;" glyph-name="q-user" data-tags="q-user" horiz-adv-x="896" d="M448 384c141.4 0 256 114.6 256 256s-114.6 256-256 256-256-114.6-256-256 114.6-256 256-256zM627.2 320h-33.4c-44.4-20.4-93.8-32-145.8-32s-101.2 11.6-145.8 32h-33.4c-148.4 0-268.8-120.4-268.8-268.8v-83.2c0-53 43-96 96-96h704c53 0 96 43 96 96v83.2c0 148.4-120.4 268.8-268.8 268.8z" />
<glyph unicode="&#xe958;" glyph-name="q-edit" data-tags="q-edit" horiz-adv-x="1152" d="M835.6 265l40 40c7.6 7.6 20.4 2.2 20.4-8.4v-328.6c0-53-43-96-96-96h-704c-53 0-96 43-96 96v704c0 53 43 96 96 96h584.6c10.6 0 16-13 8.4-20.4l-40-40c-2.2-2.2-5.4-3.6-8.4-3.6h-544.6c-17.6 0-32-14.4-32-32v-704c0-17.6 14.4-32 32-32h704c17.6 0 32 14.4 32 32v288.6c0 3.2 1.2 6.2 3.6 8.4zM1127.4 647.4l-625-625-199.8-22.2c-26.8-3-49.4 19.6-46.4 46.4l22.2 199.8 625 625c32.8 32.8 86 32.8 118.8 0l105.2-105.2c32.8-32.8 32.8-86 0-118.8zM940.2 550.6l-133.4 133.4-467.2-467-16.6-150.2 150.2 16.6 467 467.2zM1082.2 721l-105.2 105.2c-7.6 7.6-20.4 8-28.2 0l-96.8-96.8 133.4-133.4 96.8 96.8c7.8 7.6 7.8 20.4 0 28.2z" />
<glyph unicode="&#xe959;" glyph-name="q-envelope" data-tags="q-envelope" d="M928 768h-832c-53 0-96-43-96-96v-576c0-53 43-96 96-96h832c53 0 96 43 96 96v576c0 53-43 96-96 96zM96 704h832c17.6 0 32-14.4 32-32v-82.8c-43.8-37-106.4-88-301.2-242.6-33.8-26.8-100.4-91.4-146.8-90.6-46.4-0.8-113.2 63.8-146.8 90.6-194.8 154.6-257.4 205.6-301.2 242.6v82.8c0 17.6 14.4 32 32 32zM928 64h-832c-17.6 0-32 14.4-32 32v410c45.6-37.4 117.6-95.2 261.4-209.4 41-32.8 113.4-105 186.6-104.6 72.8-0.6 144.6 71 186.6 104.6 143.8 114.2 215.8 172 261.4 209.4v-410c0-17.6-14.4-32-32-32z" />
<glyph unicode="&#xe95a;" glyph-name="q-img" data-tags="q-img" d="M928 768h-832c-53.020 0-96-42.98-96-96v-576c0-53.020 42.98-96 96-96h832c53.020 0 96 42.98 96 96v576c0 53.020-42.98 96-96 96zM916 96h-808c-6.627 0-12 5.373-12 12v0 552c0 6.627 5.373 12 12 12v0h808c6.627 0 12-5.373 12-12v0-552c0-6.627-5.373-12-12-12v0zM256 592c-44.182 0-80-35.818-80-80s35.818-80 80-80 80 35.818 80 80-35.818 80-80 80zM192 192h640v160l-175.030 175.030c-9.372 9.372-24.568 9.372-33.942 0l-239.028-239.030-79.030 79.030c-9.372 9.372-24.568 9.372-33.942 0l-79.028-79.030v-96z" />
<glyph unicode="&#xe95b;" glyph-name="q-imgs" data-tags="q-imgs" horiz-adv-x="1152" d="M960 64v-32c0-53.020-42.98-96-96-96h-768c-53.020 0-96 42.98-96 96v512c0 53.020 42.98 96 96 96h32v-96h-20c-6.627 0-12-5.373-12-12v0-488c0-6.627 5.373-12 12-12v0h744c6.627 0 12 5.373 12 12v0 20h96zM1044 736h-744c-6.627 0-12-5.373-12-12v0-488c0-6.627 5.373-12 12-12v0h744c6.627 0 12 5.373 12 12v0 488c0 6.627-5.373 12-12 12v0zM1056 832c53.020 0 96-42.98 96-96v-512c0-53.020-42.98-96-96-96h-768c-53.020 0-96 42.98-96 96v512c0 53.020 42.98 96 96 96h768zM528 608c0-44.182-35.818-80-80-80s-80 35.818-80 80 35.818 80 80 80 80-35.818 80-80zM384 416l79.030 79.030c9.372 9.372 24.568 9.372 33.942 0l79.028-79.030 207.030 207.030c9.372 9.372 24.568 9.372 33.942 0l143.028-143.030v-160h-576v96z" />
<glyph unicode="&#xe95c;" glyph-name="q-lock" data-tags="q-lock" horiz-adv-x="896" d="M448 72c-31 0-56 25-56 56v128c0 31 25 56 56 56s56-25 56-56v-128c0-31-25-56-56-56zM896 416v-448c0-53-43-96-96-96h-704c-53 0-96 43-96 96v448c0 53 43 96 96 96h64v96c0 159 129.6 288.4 288.8 288s287.2-131.6 287.2-290.8v-93.2h64c53 0 96-43 96-96zM256 512h384v96c0 105.8-86.2 192-192 192s-192-86.2-192-192v-96zM800 416h-704v-448h704v448z" />
<glyph unicode="&#xe95d;" glyph-name="q-inbox" data-tags="q-inbox" horiz-adv-x="1152" d="M1135.876 408.184l-211.376 317.068c-17.463 25.923-46.705 42.747-79.878 42.748h-537.244c-33.172 0-62.414-16.825-79.659-42.406l-0.217-0.342-211.378-317.068c-10.101-14.963-16.124-33.403-16.124-53.249 0 0 0-0.001 0-0.001v0-258.934c0-53.020 42.98-96 96-96h960c53.020 0 96 42.98 96 96v258.934c0 0 0 0.001 0 0.001 0 19.846-6.023 38.286-16.341 53.59l0.217-0.341zM324.504 640h502.994l170.666-256h-246.164l-64-128h-224l-64 128h-246.164l170.668 256z" />
<glyph unicode="&#xe95e;" glyph-name="q-send" data-tags="q-send" d="M880 883l-832-479.8c-68.8-39.8-62.2-141.6 11.4-171.8l228.6-94.6v-168.8c0-92.8 118.4-131 173.2-57.2l87.6 118.2 223.8-92.4c11.8-4.8 24.2-7.2 36.6-7.2 16.4 0 32.6 4.2 47.2 12.4 25.6 14.4 43.2 40 47.8 69l118.8 774.4c12.2 80.2-73.8 137.6-143 97.8zM384-32v129.2l73.2-30.2-73.2-99zM809.2 25.4l-307.6 127 280.4 404.6c21.4 31-19 67-47.4 42.4l-423-368.6-215.6 89.2 832 480-118.8-774.6z" />
<glyph unicode="&#xe95f;" glyph-name="q-calendar" data-tags="q-calendar" horiz-adv-x="896" d="M800 768h-96v104c0 13.2-10.8 24-24 24h-16c-13.2 0-24-10.8-24-24v-104h-384v104c0 13.2-10.8 24-24 24h-16c-13.2 0-24-10.8-24-24v-104h-96c-53 0-96-43-96-96v-704c0-53 43-96 96-96h704c53 0 96 43 96 96v704c0 53-43 96-96 96zM96 704h704c17.6 0 32-14.4 32-32v-96h-768v96c0 17.6 14.4 32 32 32zM800-64h-704c-17.6 0-32 14.4-32 32v544h768v-544c0-17.6-14.4-32-32-32zM296 256h-80c-13.2 0-24 10.8-24 24v80c0 13.2 10.8 24 24 24h80c13.2 0 24-10.8 24-24v-80c0-13.2-10.8-24-24-24zM488 256h-80c-13.2 0-24 10.8-24 24v80c0 13.2 10.8 24 24 24h80c13.2 0 24-10.8 24-24v-80c0-13.2-10.8-24-24-24zM680 256h-80c-13.2 0-24 10.8-24 24v80c0 13.2 10.8 24 24 24h80c13.2 0 24-10.8 24-24v-80c0-13.2-10.8-24-24-24zM488 64h-80c-13.2 0-24 10.8-24 24v80c0 13.2 10.8 24 24 24h80c13.2 0 24-10.8 24-24v-80c0-13.2-10.8-24-24-24zM296 64h-80c-13.2 0-24 10.8-24 24v80c0 13.2 10.8 24 24 24h80c13.2 0 24-10.8 24-24v-80c0-13.2-10.8-24-24-24zM680 64h-80c-13.2 0-24 10.8-24 24v80c0 13.2 10.8 24 24 24h80c13.2 0 24-10.8 24-24v-80c0-13.2-10.8-24-24-24z" />
<glyph unicode="&#xe960;" glyph-name="q-chev-up" data-tags="q-chev-up" horiz-adv-x="896" d="M8.93 163.050l14.14-14.142c9.372-9.372 24.568-9.372 33.942 0l390.988 390.986 390.988-390.986c9.372-9.372 24.568-9.372 33.942 0l14.14 14.142c9.372 9.372 9.372 24.568 0 33.94l-422.1 422.102c-9.372 9.372-24.568 9.372-33.942 0l-422.098-422.102c-9.374-9.372-9.374-24.568 0-33.94z" />
<glyph unicode="&#xe961;" glyph-name="q-chev-right" data-tags="q-chev-right" horiz-adv-x="512" d="M35.050 823.070l-14.142-14.14c-9.372-9.372-9.372-24.568 0-33.942l390.986-390.988-390.986-390.988c-9.372-9.372-9.372-24.568 0-33.942l14.142-14.14c9.372-9.372 24.568-9.372 33.94 0l422.102 422.1c9.372 9.372 9.372 24.568 0 33.942l-422.102 422.098c-9.372 9.374-24.568 9.374-33.94 0z" />
<glyph unicode="&#xe962;" glyph-name="q-chev-down" data-tags="q-chev-down" horiz-adv-x="896" d="M887 570.8l-14.2 14.2c-9.4 9.4-24.6 9.4-34 0l-390.8-391-391 391c-9.4 9.4-24.6 9.4-34 0l-14.2-14.2c-9.4-9.4-9.4-24.6 0-34l422-422.2c9.4-9.4 24.6-9.4 34 0l422 422.2c9.6 9.4 9.6 24.6 0.2 34z" />
<glyph unicode="&#xe963;" glyph-name="q-chev-left" data-tags="q-chev-left" horiz-adv-x="512" d="M476.95-55.070l14.142 14.14c9.372 9.372 9.372 24.568 0 33.942l-390.986 390.988 390.986 390.988c9.372 9.372 9.372 24.568 0 33.942l-14.142 14.14c-9.372 9.372-24.568 9.372-33.94 0l-422.102-422.1c-9.372-9.372-9.372-24.568 0-33.942l422.102-422.1c9.372-9.372 24.568-9.372 33.94 0.002z" />
<glyph unicode="&#xe964;" glyph-name="q-updown" data-tags="q-updown" horiz-adv-x="640" d="M82.1 319.9h476c42.8 0 64.2-51.8 34-82l-238-238c-8.66-8.71-20.65-14.101-33.9-14.101-13.15 0-25.060 5.31-33.702 13.903l-238.398 238.198c-30.1 30.1-8.8 82 34 82zM48.1 529.9l238.2 238c8.66 8.71 20.65 14.101 33.9 14.101 13.2 0 25.15-5.35 33.8-14.001v0c0.072-0.062 0.138-0.128 0.198-0.198l238.002-238.002c30.2-30.2 8.8-82-34-82h-476c-42.9 0.1-64.2 51.9-34.1 82.1z" />
<glyph unicode="&#xe965;" glyph-name="q-arrow-up" data-tags="q-arrow-up" horiz-adv-x="896" d="M8.93 368.928l14.14-14.142c9.372-9.372 24.568-9.372 33.942 0l356.988 356.988v-751.774c0-13.254 10.746-24 24-24h20c13.254 0 24 10.746 24 24v751.774l356.988-356.986c9.372-9.372 24.568-9.372 33.942 0l14.14 14.142c9.372 9.372 9.372 24.568 0 33.94l-422.1 422.1c-9.372 9.372-24.568 9.372-33.942 0l-422.098-422.102c-9.374-9.372-9.374-24.568 0-33.94z" />
<glyph unicode="&#xe966;" glyph-name="q-arrow-right" data-tags="q-arrow-right" horiz-adv-x="896" d="M432.928 823.070l-14.142-14.14c-9.372-9.372-9.372-24.568 0-33.942l356.988-356.988h-751.774c-13.254 0-24-10.746-24-24v-20c0-13.254 10.746-24 24-24h751.774l-356.988-356.988c-9.372-9.372-9.372-24.568 0-33.942l14.142-14.14c9.372-9.372 24.568-9.372 33.94 0l422.102 422.1c9.372 9.372 9.372 24.568 0 33.942l-422.102 422.098c-9.372 9.374-24.568 9.374-33.94 0z" />
<glyph unicode="&#xe967;" glyph-name="q-arrow-down" data-tags="q-arrow-down" horiz-adv-x="896" d="M887 399l-14.2 14.2c-9.4 9.4-24.6 9.4-34 0l-356.8-357v751.8c0 13.2-10.8 24-24 24h-20c-13.2 0-24-10.8-24-24v-751.8l-357 357c-9.4 9.4-24.6 9.4-34 0l-14.2-14.2c-9.4-9.4-9.4-24.6 0-34l422-422.2c9.4-9.4 24.6-9.4 34 0l422 422.2c9.6 9.6 9.6 24.6 0.2 34z" />
<glyph unicode="&#xe968;" glyph-name="q-arrow-left" data-tags="q-arrow-left" horiz-adv-x="896" d="M463.072-55.070l14.142 14.14c9.372 9.372 9.372 24.568 0 33.942l-356.988 356.988h751.774c13.254 0 24 10.746 24 24v20c0 13.254-10.746 24-24 24h-751.774l356.988 356.988c9.372 9.372 9.372 24.568 0 33.942l-14.142 14.14c-9.372 9.372-24.568 9.372-33.94 0l-422.102-422.1c-9.372-9.372-9.372-24.568 0-33.942l422.102-422.1c9.372-9.372 24.568-9.372 33.94 0.002z" />
<glyph unicode="&#xe969;" glyph-name="q-upload" data-tags="q-upload" d="M904 32c0-22-18-40-40-40s-40 18-40 40 18 40 40 40 40-18 40-40zM736 72c-22 0-40-18-40-40s18-40 40-40 40 18 40 40-18 40-40 40zM1024 168v-208c0-48.6-39.4-88-88-88h-848c-48.6 0-88 39.4-88 88v208c0 48.6 39.4 88 88 88h248v198.6h-105.4c-71.2 0-106.8 86.2-56.6 136.6l281.4 281.4c31.2 31.2 81.8 31.2 113.2 0l281.4-281.4c50.4-50.4 14.6-136.6-56.6-136.6h-105.4v-198.6h248c48.6 0 88-39.4 88-88zM400 518.6v-374.6c0-8.8 7.2-16 16-16h192c8.8 0 16 7.2 16 16v374.6h169.4c14.2 0 21.4 17.2 11.4 27.4l-281.4 281.4c-6.2 6.2-16.4 6.2-22.6 0l-281.4-281.4c-10-10-3-27.4 11.4-27.4h169.2zM960 168c0 13.2-10.8 24-24 24h-248v-48c0-44.2-35.8-80-80-80h-192c-44.2 0-80 35.8-80 80v48h-248c-13.2 0-24-10.8-24-24v-208c0-13.2 10.8-24 24-24h848c13.2 0 24 10.8 24 24v208z" />
<glyph unicode="&#xe96a;" glyph-name="q-download" data-tags="q-download" d="M904 32c0-22-18-40-40-40s-40 18-40 40 18 40 40 40 40-18 40-40zM736 72c-22 0-40-18-40-40s18-40 40-40 40 18 40 40-18 40-40 40zM1024 168v-208c0-48.6-39.4-88-88-88h-848c-48.6 0-88 39.4-88 88v208c0 48.6 39.4 88 88 88h198.8l-112.8 112.8c-50.4 50.4-14.6 136.6 56.6 136.6h105.4v310.6c0 44.2 35.8 80 80 80h192c44.2 0 80-35.8 80-80v-310.6h105.4c71.2 0 106.8-86.2 56.6-136.6l-112.8-112.8h198.8c48.6 0 88-39.4 88-88zM500.6 132.6c6.2-6.2 16.4-6.2 22.6 0l281.4 281.4c10 10 3 27.4-11.4 27.4h-169.2v374.6c0 8.8-7.2 16-16 16h-192c-8.8 0-16-7.2-16-16v-374.6h-169.4c-14.2 0-21.4-17.2-11.4-27.4l281.4-281.4zM960 168c0 13.2-10.8 24-24 24h-262.8l-104.6-104.6c-31.2-31.2-82-31.2-113.2 0l-104.6 104.6h-262.8c-13.2 0-24-10.8-24-24v-208c0-13.2 10.8-24 24-24h848c13.2 0 24 10.8 24 24v208z" />
<glyph unicode="&#xe96b;" glyph-name="q-eye-slash" data-tags="q-eye-slash" horiz-adv-x="1280" d="M1274-74.5l-1228 967c-2.711 2.181-6.196 3.501-9.989 3.501-5.039 0-9.534-2.33-12.467-5.97l-0.024-0.031-20-25.020c-2.186-2.713-3.509-6.201-3.509-9.999 0-5.034 2.324-9.524 5.959-12.457l0.031-0.024 1228-967c2.713-2.187 6.203-3.511 10.001-3.511 5.044 0 9.542 2.334 12.475 5.98l0.024 0.031 20 25.020c2.181 2.711 3.501 6.196 3.501 9.989 0 5.039-2.33 9.534-5.97 12.467l-0.031 0.024zM640 704c141.321-0.159 255.841-114.679 256-255.985v-0.015c0-43.24-11.8-83.38-30.8-119.14l50.9-40c27.2 46.96 43.9 100.86 43.9 159.14 0 73.66-25.82 140.62-67.56 194.66 112.368-57.565 201.692-146.567 258.112-255.378l1.548-3.282c-35.46-67.978-80.811-125.707-134.927-173.785l-0.613-0.535 50.64-39.88c56.94 52.56 105.74 114.52 141.86 185.020 4.387 8.495 6.959 18.542 6.959 29.19s-2.572 20.695-7.129 29.553l0.17-0.363c-108.46 211.62-323.18 354.8-569.060 354.8-0.098 0-0.214 0-0.33 0-94.272 0-183.648-20.957-263.726-58.466l3.816 1.606 91.54-72c45.18 39.82 103.82 64.86 168.7 64.86zM761.72 410.34c3.99 11.755 6.293 25.294 6.293 39.372 0 69.754-56.546 126.3-126.3 126.3-0.602 0-1.204-0.004-1.804-0.013l0.091 0.001c-2 0-3.78-0.48-5.7-0.58 3.61-9.377 5.701-20.225 5.701-31.562 0-11.81-2.269-23.089-6.395-33.427l0.214 0.609zM326.48 508.66c-3.964-18.167-6.315-39.092-6.479-60.537l-0.001-0.123c-0.001-0.363-0.002-0.792-0.002-1.222 0-176.057 142.723-318.78 318.78-318.78 48.533 0 94.532 10.846 135.707 30.245l-1.945-0.824-59.16 46.58c-23.4-7.060-47.7-12-73.36-12-141.325 0.159-255.849 114.677-256.020 255.984v0.016c0 4.88 1.18 9.44 1.44 14.24zM640 64c-214.72 0-410.94 122.62-512 320 34.86 68 82.18 125.44 136.62 173.44l-51.72 40.74c-56.96-52.56-105.74-114.5-141.86-185-4.387-8.495-6.959-18.542-6.959-29.19s2.572-20.695 7.129-29.553l-0.17 0.363c108.38-211.62 323.1-354.8 568.96-354.8 0.095 0 0.208 0 0.321 0 94.275 0 183.654 20.957 263.735 58.466l-3.816-1.606-58.5 46c-63.62-24.54-131.44-38.86-201.74-38.86z" />
<glyph unicode="&#xe96c;" glyph-name="q-eye" data-tags="q-eye" horiz-adv-x="1152" d="M576 320c70.692 0 128 57.308 128 128s-57.308 128-128 128v0c-2 0-3.76-0.48-5.7-0.58 3.613-9.645 5.705-20.791 5.705-32.425 0-52.467-42.533-95-95-95-11.634 0-22.78 2.091-33.082 5.919l0.657-0.214c0-2-0.58-3.76-0.58-5.7 0-70.692 57.308-128 128-128v0zM1145.040 413.2c-108.46 211.62-323.18 354.8-569.040 354.8s-460.64-143.28-569.040-354.82c-4.387-8.495-6.959-18.542-6.959-29.19s2.572-20.695 7.129-29.553l-0.17 0.363c108.46-211.62 323.18-354.8 569.040-354.8s460.64 143.28 569.040 354.82c4.387 8.495 6.959 18.542 6.959 29.19s-2.572 20.695-7.129 29.553l0.17-0.363zM576 704c141.385 0 256-114.615 256-256s-114.615-256-256-256c-141.385 0-256 114.615-256 256v0c0.159 141.321 114.679 255.841 255.985 256h0.015zM576 64c-214.72 0-410.92 122.62-512 320 57.931 112.088 147.223 201.090 256.246 257.113l3.314 1.547c-41.74-54.040-67.56-121-67.56-194.66 0-176.731 143.269-320 320-320s320 143.269 320 320v0c0 73.66-25.82 140.62-67.56 194.66 112.336-57.569 201.628-146.571 258.012-255.376l1.548-3.284c-101.060-197.38-297.28-320-512-320z" />
<glyph unicode="&#xe96d;" glyph-name="q-ban" data-tags="q-ban" d="M512 880c-273.934 0-496-222.066-496-496s222.066-496 496-496 496 222.066 496 496-222.066 496-496 496zM206.53 78.53c-161.244 161.244-168.298 417.914-21.8 587.486l609.288-609.286c-169.608-146.528-426.276-139.412-587.488 21.8zM839.27 101.984l-609.286 609.286c169.608 146.526 426.274 139.41 587.486-21.8 161.244-161.242 168.298-417.914 21.8-587.486z" />
<glyph unicode="&#xe96e;" glyph-name="q-folder-open" data-tags="q-folder-open" horiz-adv-x="1152" d="M1055.9 448h-95.9v96c0 53.020-42.98 96-96 96h-320l-128 128h-320c-53.020 0-96-42.98-96-96v-576c0-53.020 42.98-96 96-96h770.114c56.136 0 108.27 29.466 137.198 77.68l134.906 224.928c38.262 63.768-7.648 145.392-82.318 145.392zM96 704h293.49l128-128h346.51c17.674 0 32-14.326 32-32v-96h-553.646c-56.136 0-108.27-29.466-137.198-77.68l-141.156-235.26v536.94c0 17.674 14.326 32 32 32zM1083.39 335.536l-134.958-224.928c-17.080-28.114-47.538-46.608-82.316-46.608-0.001 0-0.002 0-0.002 0h-776.468l164.034 273.392c17.082 28.114 47.541 46.608 82.319 46.608 0 0 0.001 0 0.001 0h719.95c24.874 0 40.238-27.136 27.44-48.464z" />
<glyph unicode="&#xe96f;" glyph-name="q-folder" data-tags="q-folder" d="M389.48 704l109.26-109.26c12-12 28.28-18.74 45.26-18.74h384c17.68 0 32-14.32 32-32v-448c0-17.68-14.32-32-32-32h-832c-17.68 0-32 14.32-32 32v576c0 17.68 14.32 32 32 32h293.48zM96 768c-53.020 0-96-42.98-96-96v-576c0-53.020 42.98-96 96-96h832c53.020 0 96 42.98 96 96v448c0 53.020-42.98 96-96 96h-384l-109.26 109.26c-12 12-28.28 18.74-45.26 18.74h-293.48z" />
<glyph unicode="&#xe970;" glyph-name="q-link" data-tags="q-link" d="M602.296 106.596l-158.4-158.38c-101.556-101.598-266.074-101.648-367.68 0-101.598 101.556-101.648 266.074 0 367.68l158.38 158.4c2.26 2.259 4.561 4.479 6.902 6.657l0.162 0.149c15.1 14.010 39.59 4.008 40.416-16.572 0.386-9.614 1.196-19.214 2.432-28.768 0.962-7.434-1.492-14.894-6.794-20.192-32.96-32.938-150.284-150.256-150.6-150.572-73.476-73.518-73.462-192.376 0-265.88 73.518-73.476 192.376-73.462 265.88 0l159.12 159.12c72.602 73.344 72.28 192.14-0.74 265.16-16.428 16.428-35.154 29.16-55.17 38.218-9.132 4.132-14.852 13.334-14.268 23.34 0.663 11.123 2.681 21.531 5.9 31.398l-0.248-0.88c4.206 13.202 19.062 19.922 31.838 14.56 30.146-12.648 58.374-31.24 82.87-55.736 101.376-101.378 101.358-266.34 0-367.702zM421.704 293.704c24.496-24.496 52.724-43.088 82.87-55.736 12.776-5.36 27.632 1.36 31.838 14.56 2.97 8.987 4.989 19.395 5.635 30.174l0.017 0.344c0.584 10.006-5.138 19.208-14.268 23.34-20.016 9.056-38.742 21.788-55.17 38.218-73.020 73.020-73.342 191.816-0.74 265.16l159.12 159.12c73.504 73.462 192.362 73.476 265.88 0 73.462-73.504 73.476-192.362 0-265.88-0.314-0.314-117.638-117.634-150.6-150.572-5.302-5.3-7.756-12.758-6.794-20.192 1.124-8.13 1.995-18.064 2.411-28.116l0.021-0.652c0.826-20.582 25.318-30.582 40.416-16.572 2.503 2.326 4.804 4.545 7.064 6.806l158.38 158.4c101.648 101.606 101.598 266.124 0 367.68-101.604 101.648-266.124 101.598-367.68 0l-158.4-158.38c-101.358-101.364-101.376-266.326 0-367.702z" />
<glyph unicode="&#xe971;" glyph-name="q-external-link" data-tags="q-external-link" d="M880 384h-32c-8.837 0-16-7.163-16-16v0-400c0-17.673-14.327-32-32-32v0h-704c-17.673 0-32 14.327-32 32v0 704c0 17.673 14.327 32 32 32v0h400c8.837 0 16 7.163 16 16v0 32c0 8.837-7.163 16-16 16v0h-400c-53.019 0-96-42.981-96-96v0-704c0-53.019 42.981-96 96-96v0h704c53.019 0 96 42.981 96 96v0 400c0 8.837-7.163 16-16 16v0zM1000 896l-272-0.68c-13.255 0-24-10.745-24-24v0-20c0-13.255 10.745-24 24-24v0l180 0.68 1.4-1.42-646.38-646.3c-4.361-4.346-7.059-10.358-7.059-17s2.698-12.654 7.058-16.999l11.321-11.321c4.346-4.361 10.358-7.059 17-7.059s12.654 2.698 16.999 7.058l646.241 646.361 1.42-1.4-0.68-180c0-13.255 10.745-24 24-24v0h20c13.255 0 24 10.745 24 24v0l0.68 272.080c0 13.255-10.745 24-24 24v0z" />
<glyph unicode="&#xe972;" glyph-name="q-login" data-tags="q-login" d="M64 461.8c0 17.6 14.4 32 32 32h288v187.8c0 14.2 17.2 21.4 27.2 11.4l283.2-286.2c12.6-12.6 12.6-32.8 0-45.4l-283.2-286.2c-10-10-27.2-3-27.2 11.4v187.8h-288c-17.6 0-32 14.4-32 32v155.4zM0 461.8v-155.4c0-53 43-96 96-96h224v-123.8c0-71 86-107 136.4-56.6l283.4 286c37.6 37.6 37.6 98.4 0 136l-283.4 286.2c-50.2 50.2-136.4 14.6-136.4-56.6v-123.8h-224c-53 0-96-43.2-96-96zM1024 96v576c0 53-43 96-96 96h-264c-13.2 0-24-10.8-24-24v-16c0-13.2 10.8-24 24-24h264c17.6 0 32-14.4 32-32v-576c0-17.6-14.4-32-32-32h-264c-13.2 0-24-10.8-24-24v-16c0-13.2 10.8-24 24-24h264c53 0 96 43 96 96z" />
<glyph unicode="&#xe973;" glyph-name="q-logout" data-tags="q-logout" d="M320 461.8c0 17.6 14.4 32 32 32h288v187.8c0 14.2 17.2 21.4 27.2 11.4l283.2-286.2c12.6-12.6 12.6-32.8 0-45.4l-283.2-286.2c-10-10-27.2-3-27.2 11.4v187.8h-288c-17.6 0-32 14.4-32 32v155.4zM256 461.8v-155.4c0-53 43-96 96-96h224v-123.8c0-71 86-107 136.4-56.6l283.4 286c37.6 37.6 37.6 98.4 0 136l-283.4 286.2c-50.2 50.2-136.4 14.6-136.4-56.6v-123.8h-224c-53 0-96-43.2-96-96zM0 672v-576c0-53 43-96 96-96h264c13.2 0 24 10.8 24 24v16c0 13.2-10.8 24-24 24h-264c-17.6 0-32 14.4-32 32v576c0 17.6 14.4 32 32 32h264c13.2 0 24 10.8 24 24v16c0 13.2-10.8 24-24 24h-264c-53 0-96-43-96-96z" />
<glyph unicode="&#xe974;" glyph-name="q-paperclip" data-tags="q-paperclip" d="M298.212-128c-66.152 0-132.306 25.18-182.666 75.542-100.728 100.722-100.728 264.61-0.004 365.33l524.142 524.132c78.662 78.662 206.656 78.662 285.32 0 78.662-78.664 78.662-206.654 0-285.314l-445.26-445.252c-56.594-56.602-148.694-56.606-205.3 0-56.6 56.602-56.6 148.698 0 205.298l340.602 340.596c9.372 9.372 24.568 9.372 33.94 0l11.322-11.322c9.372-9.372 9.372-24.568 0-33.942l-340.6-340.594c-31.642-31.642-31.642-83.126 0.002-114.77 31.642-31.64 83.128-31.64 114.77 0l445.26 445.252c53.702 53.702 53.702 141.082 0 194.788-53.71 53.702-141.088 53.698-194.79 0l-524.142-524.136c-75.764-75.764-75.764-199.038 0-274.802 75.768-75.762 199.046-75.764 274.808-0.002l435.486 435.478c9.372 9.372 24.568 9.372 33.94 0l11.322-11.322c9.372-9.372 9.372-24.568 0-33.942l-435.484-435.476c-50.36-50.362-116.514-75.542-182.668-75.542z" />
<glyph unicode="&#xe975;" glyph-name="q-share" data-tags="q-share" horiz-adv-x="896" d="M704 256c-57.2 0-108.4-25-143.6-64.6l-191 119.4c19.2 46.8 19.4 99.6 0 146.4l191 119.4c35.2-39.6 86.4-64.6 143.6-64.6 106 0 192 86 192 192s-86 192-192 192-192-86-192-192c0-26 5.2-50.6 14.4-73.2l-191-119.4c-35 39.6-86.2 64.6-143.4 64.6-106 0-192-86-192-192s86-192 192-192c57.2 0 108.4 25 143.6 64.6l191-119.4c-9.4-22.6-14.4-47.2-14.4-73.2 0-106 86-192 192-192s192 86 192 192c-0.2 106-86.2 192-192.2 192zM704 832c70.6 0 128-57.4 128-128s-57.4-128-128-128-128 57.4-128 128 57.4 128 128 128zM192 256c-70.6 0-128 57.4-128 128s57.4 128 128 128 128-57.4 128-128-57.4-128-128-128zM704-64c-70.6 0-128 57.4-128 128s57.4 128 128 128 128-57.4 128-128-57.4-128-128-128z" />
<glyph unicode="&#xe976;" glyph-name="q-phone" data-tags="q-phone" d="M740.86 511.5c-22.477 38.81-63.807 64.5-111.138 64.5-0.001 0-0.001 0-0.002 0h-235.44c0 0-0.001 0-0.002 0-47.331 0-88.662-25.69-110.81-63.886l-0.329-0.614-210.7-368.74c-5.306-9.122-8.439-20.075-8.44-31.76v0-111c0-35.346 28.654-64 64-64v0h768c35.346 0 64 28.654 64 64v0 111c-0.001 11.685-3.134 22.638-8.604 32.067l0.164-0.307zM512 128c-79.529 0-144 64.471-144 144s64.471 144 144 144c79.529 0 144-64.471 144-144v0c0-79.529-64.471-144-144-144v0zM1012.36 650c-138.84 116-317.6 182-500.36 182s-361.52-66-500.36-182c-7.14-6.073-11.64-15.065-11.64-25.109 0-0.060 0-0.12 0-0.181v0.009-112.72c0-17.673 14.327-32 32-32v0h140.22c12.458 0.003 23.252 7.124 28.536 17.518l0.084 0.182 55.16 142.3c79.8 34.56 166.4 48 256 48 89.54 0 176.14-13.44 256-48l55.16-142.3c5.368-10.576 16.162-17.697 28.62-17.7h140.22c17.673 0 32 14.327 32 32v0 112.72c0 0.051 0 0.111 0 0.171 0 10.043-4.5 19.035-11.594 25.070l-0.047 0.039z" />
<glyph unicode="&#xe977;" glyph-name="q-fax" data-tags="q-fax" d="M576 160h-64c-17.673 0-32-14.327-32-32v0-64c0-17.673 14.327-32 32-32v0h64c17.673 0 32 14.327 32 32v0 64c0 17.673-14.327 32-32 32v0zM960 494.24v247.26c-0.003 17.677-7.172 33.679-18.76 45.26l-90.48 90.48c-11.581 11.588-27.583 18.757-45.259 18.76h-453.501c-35.346 0-64-28.654-64-64v0-209.76c-18.296 11.044-40.365 17.628-63.963 17.76h-96.037c-70.692 0-128-57.308-128-128v0-512c0-70.692 57.308-128 128-128v0h96c30.485 0.128 58.409 10.987 80.215 28.992l-0.215-0.172c21.591-17.833 49.515-28.692 79.972-28.82h512.028c70.692 0 128 57.308 128 128v0 384c-0.105 46.926-25.56 87.883-63.393 109.914l-0.607 0.326zM256 0c0-17.673-14.327-32-32-32v0h-96c-17.673 0-32 14.327-32 32v0 512c0 17.673 14.327 32 32 32v0h96c17.673 0 32-14.327 32-32v0zM384 800h384v-64c0-17.673 14.327-32 32-32v0h64v-192h-480zM928 0c0-17.673-14.327-32-32-32v0h-512c-17.673 0-32 14.327-32 32v0 416h544c17.673 0 32-14.327 32-32v0zM576 352h-64c-17.673 0-32-14.327-32-32v0-64c0-17.673 14.327-32 32-32v0h64c17.673 0 32 14.327 32 32v0 64c0 17.673-14.327 32-32 32v0zM768 352h-64c-17.673 0-32-14.327-32-32v0-64c0-17.673 14.327-32 32-32v0h64c17.673 0 32 14.327 32 32v0 64c0 17.673-14.327 32-32 32v0zM768 160h-64c-17.673 0-32-14.327-32-32v0-64c0-17.673 14.327-32 32-32v0h64c17.673 0 32 14.327 32 32v0 64c0 17.673-14.327 32-32 32v0z" />
<glyph unicode="&#xe978;" glyph-name="q-print" data-tags="q-print" d="M896 512v229.5c0 16.98-6.74 33.24-18.74 45.26l-90.52 90.5c-12 12-28.28 18.74-45.26 18.74h-549.48c-35.34 0-64-28.66-64-64v-320c-70.7 0-128-57.3-128-128v-224c0-17.68 14.32-32 32-32h96v-192c0-35.34 28.66-64 64-64h640c35.34 0 64 28.66 64 64v192h96c17.68 0 32 14.32 32 32v224c0 70.7-57.3 128-128 128zM768 0h-512v192h512v-192zM768 448h-512v320h384v-96c0-17.68 14.32-32 32-32h96v-192zM864 304c-26.5 0-48 21.5-48 48 0 26.52 21.5 48 48 48s48-21.48 48-48c0-26.5-21.5-48-48-48z" />
<glyph unicode="&#xe979;" glyph-name="q-pdf" data-tags="q-pdf" horiz-adv-x="768" d="M739.8 700.2l-167.8 167.8c-18 18-42.4 28.2-67.8 28.2h-408.2c-53-0.2-96-43.2-96-96.2v-832c0-53 43-96 96-96h576c53 0 96 43 96 96v664.2c0 25.4-10.2 50-28.2 68zM694.6 654.8c4.2-4.2 7-9.2 8.4-14.8h-191v191c5.6-1.4 10.6-4.2 14.8-8.4l167.8-167.8zM672-64h-576c-17.6 0-32 14.4-32 32v832c0 17.6 14.4 32 32 32h352v-208c0-26.6 21.4-48 48-48h208v-608c0-17.6-14.4-32-32-32zM628 278.4c-27 26.6-110 18.4-147.4 13.4-42.4 25.6-70.4 60.8-90.2 113.2 8.6 36 24 94.4 12.8 129.8-8.8 56.2-79.4 49.4-89.2 13.6-10-36.6-0.6-88.8 16.8-155.6-23.8-56.8-59.4-133.8-84.2-177.2-41.6-21.4-108.2-58.6-117.6-104.8-7-33.6 45.8-78.8 106.2-12.8 18.2 19.8 38.6 49.6 62.6 91 53.4 17.6 112.2 39.6 164 48 43.8-24 95.2-39.8 129.2-39.8 55.4-0.2 57.8 60.4 37 81.2zM169.6 100.4c11.8 31.8 57.2 68.8 71 81.6-44.2-70.6-71-83-71-81.6zM360 545c17.4 0 15.6-75 4.2-95.2-10.4 32.6-10 95.2-4.2 95.2zM303.2 226.4c22.6 39.6 42 86.4 57.6 127.4 19.4-35.4 44.2-63.4 70.2-83-48.6-9.4-90.8-30.2-127.8-44.4zM610 238.2s-11.6-14-87 18.2c82 6 95.4-12.8 87-18.2z" />
<glyph unicode="&#xe97a;" glyph-name="q-word" data-tags="q-word" horiz-adv-x="768" d="M739.8 700.2l-167.8 167.8c-18 18-42.4 28.2-67.8 28.2h-408.2c-53-0.2-96-43.2-96-96.2v-832c0-53 43-96 96-96h576c53 0 96 43 96 96v664.2c0 25.4-10.2 50-28.2 68zM694.6 654.8c4.2-4.2 7-9.2 8.4-14.8h-191v191c5.6-1.4 10.6-4.2 14.8-8.4l167.8-167.8zM672-64h-576c-17.6 0-32 14.4-32 32v832c0 17.6 14.4 32 32 32h352v-208c0-26.6 21.4-48 48-48h208v-608c0-17.6-14.4-32-32-32zM564.8 429c-13.6-65.6-65-279.4-66.8-300.6-11.6 58.2-1.4-3.2-83.6 301.8-2.8 10.4-12.4 17.8-23.2 17.8h-12.8c-10.8 0-20.4-7.2-23.2-17.8-76.6-284.6-74.8-281.2-78.8-309.4-8.2 47.8 4.2 5.8-68.8 308.8-2.6 10.8-12.2 18.4-23.4 18.4h-14.4c-15.6 0-27-14.6-23.2-29.8 19-76 69-274.8 84.4-336 2.6-10.6 12.2-18.2 23.2-18.2h34c10.8 0 20.4 7.4 23.2 17.8 68.4 255.4 67 246.8 73.4 285.8 13-62.2 0.4-14 73.4-285.8 2.8-10.4 12.4-17.8 23.2-17.8h28c11 0 27.4 7.4 30.2 18l85.6 336c3.8 15.2-7.6 30-23.2 30h-13.6c-11.4 0-21.2-8-23.6-19z" />
<glyph unicode="&#xe97b;" glyph-name="q-excel" data-tags="q-excel" horiz-adv-x="768" d="M739.8 700.2l-167.8 167.8c-18 18-42.4 28.2-67.8 28.2h-408.2c-53-0.2-96-43.2-96-96.2v-832c0-53 43-96 96-96h576c53 0 96 43 96 96v664.2c0 25.4-10.2 50-28.2 68zM694.6 654.8c4.2-4.2 7-9.2 8.4-14.8h-191v191c5.6-1.4 10.6-4.2 14.8-8.4l167.8-167.8zM672-64h-576c-17.6 0-32 14.4-32 32v832c0 17.6 14.4 32 32 32h352v-208c0-26.6 21.4-48 48-48h208v-608c0-17.6-14.4-32-32-32zM423.4 280l101 163.6c9.6 16-1.8 36.4-20.6 36.4h-8.2c-8.2 0-15.8-4.2-20.2-11-62-97-72.8-107-91.4-149-34.4 64.4-16.8 32-91.6 149-4.4 6.8-12 11-20.2 11h-8.2c-18.8 0-30.2-20.6-20.4-36.4l102.4-163.6-118.2-179c-10.2-16 1.2-37 20.2-37h7c8.2 0 15.8 4.2 20.2 11 74.4 116 90.6 125 108.8 165 63-113.4 88.6-134.4 108.8-165.2 4.4-6.8 12-10.8 20-10.8h7.2c19 0 30.4 20.8 20.2 36.8l-116.8 179.2z" />
<glyph unicode="&#xe97c;" glyph-name="q-csv" data-tags="q-csv" horiz-adv-x="768" d="M739.8 700.040l-167.76 167.76c-18 18-42.4 28.2-67.78 28.2h-408.28c-52.98-0.2-95.98-43.2-95.98-96.18v-831.84c0-52.98 43-95.98 95.98-95.98h576.040c52.98 0 95.98 43 95.98 95.98v664.080c0 25.38-10.2 49.98-28.2 67.98zM512.060 830.82c5.6-1.4 10.6-4.2 14.8-8.4l167.76-167.76c4.2-4.2 7-9.2 8.4-14.8h-190.96v190.96zM704.020-32.020c0-17.6-14.4-32-32-32h-576.040c-17.6 0-32 14.4-32 32v831.84c0 17.6 14.4 32.18 32 32.18h352.080v-208.14c0-26.6 21.4-47.86 48-47.86h207.96v-608.020zM240 384h-16c-53.020 0-96-42.98-96-96v-64c0-53.020 42.98-96 96-96h16c8.84 0 16 7.16 16 16v32c0 8.84-7.16 16-16 16h-16c-17.68 0-32 14.32-32 32v64c0 17.68 14.32 32 32 32h16c8.84 0 16 7.16 16 16v32c0 8.84-7.16 16-16 16zM464 384c-8.84 0-16-7.16-16-16v-41.6c0-70.96 25.76-137.78 72.56-188.18 6.040-6.5 14.54-10.22 23.44-10.22s17.4 3.72 23.44 10.22c46.82 50.4 72.56 117.22 72.56 188.18v41.6c0 8.84-7.16 16-16 16h-32c-8.84 0-16-7.16-16-16v-41.6c0-40.54-11.4-80.34-32-113.76-20.6 33.4-32 73.22-32 113.76v41.6c0 8.84-7.16 16-16 16h-32zM358.9 299.060c-2.76 2.38-4.24 5.1-4.24 7.68 0 6.24 8.9 13.24 20.82 13.24h24.52c8.84 0 16 7.16 16 16v32c0 8.84-7.16 16-16 16h-24.54c-46.78 0-84.82-34.66-84.82-77.24 0-21.32 9.72-41.84 26.66-56.28l43.78-37.54c2.76-2.38 4.24-5.1 4.24-7.68 0-6.24-8.9-13.24-20.82-13.24h-24.5c-8.84 0-16-7.16-16-16v-32c0-8.84 7.16-16 16-16h24.54c46.78 0 84.82 34.66 84.82 77.24 0 21.32-9.72 41.84-26.66 56.28l-43.8 37.54z" />
<glyph unicode="&#xe97d;" glyph-name="q-close" data-tags="q-close" horiz-adv-x="640" d="M415.2 384l215.44 215.44c12.46 12.46 12.46 32.68 0 45.16l-50.060 50.060c-12.46 12.46-32.68 12.46-45.16 0l-215.42-215.46-215.44 215.44c-12.46 12.46-32.68 12.46-45.16 0l-50.040-50.040c-12.46-12.46-12.46-32.68 0-45.16l215.44-215.44-215.44-215.44c-12.46-12.46-12.46-32.68 0-45.16l50.060-50.060c12.46-12.46 32.68-12.46 45.16 0l215.42 215.46 215.44-215.44c12.46-12.46 32.68-12.46 45.16 0l50.060 50.060c12.46 12.46 12.46 32.68 0 45.16l-215.46 215.42z" />
<glyph unicode="&#xe97e;" glyph-name="q-plus" data-tags="q-plus" horiz-adv-x="768" d="M736 448h-288v288c0 17.68-14.32 32-32 32h-64c-17.68 0-32-14.32-32-32v-288h-288c-17.68 0-32-14.32-32-32v-64c0-17.68 14.32-32 32-32h288v-288c0-17.68 14.32-32 32-32h64c17.68 0 32 14.32 32 32v288h288c17.68 0 32 14.32 32 32v64c0 17.68-14.32 32-32 32z" />
</font>
</defs>
</svg>
